Stretch Light Wide Cy Sc vv(14.4-0.0)-(84.5-100.0)-0.0-0.0-(0.0-0.0).ufo
<glyph name="a-cy.sc" format="1">
  <advance width="1464"/>
  <outline>
    <contour>
      <point x="723" y="1272" type="move" name="top"/>
    </contour>
    <contour>
      <point x="1305" y="18" type="move" name="ogonek"/>
    </contour>
    <contour>
      <point x="702" y="-144" type="move" name="mark0"/>
    </contour>
    <contour>
      <point x="713" y="0" type="move" name="bottom"/>
    </contour>
    <contour>
      <point x="118" y="98" type="line"/>
      <point x="-17" y="80" type="line"/>
      <point x="-17" y="0" type="line"/>
      <point x="456" y="0" type="line"/>
      <point x="456" y="80" type="line"/>
      <point x="268" y="98" type="line"/>
      <point x="380" y="364" type="line"/>
      <point x="1042" y="364" type="line"/>
      <point x="1155" y="96" type="line"/>
      <point x="967" y="80" type="line"/>
      <point x="967" y="0" type="line"/>
      <point x="1481" y="0" type="line"/>
      <point x="1481" y="80" type="line"/>
      <point x="1343" y="96" type="line"/>
      <point x="818" y="1304" type="line"/>
      <point x="650" y="1304" type="line"/>
    </contour>
    <contour>
      <point x="1005" y="460" type="line"/>
      <point x="418" y="460" type="line"/>
      <point x="655" y="1026" type="line"/>
      <point x="714" y="1190" type="line"/>
      <point x="770" y="1030" type="line"/>
    </contour>
  </outline>
</glyph>
<glyph name="abreve-cy.sc" format="1">
  <advance width="1464"/>
  <outline>
    <contour>
      <point x="452" y="1856" type="curve" smooth="yes"/>
      <point x="327" y="1856" type="line"/>
      <point x="327" y="1844"/>
      <point x="325" y="1832"/>
      <point x="325" y="1822" type="curve" smooth="yes"/>
      <point x="325" y="1616"/>
      <point x="465" y="1464"/>
      <point x="726" y="1464" type="curve" smooth="yes"/>
      <point x="990" y="1464"/>
      <point x="1122" y="1614"/>
      <point x="1122" y="1822" type="curve" smooth="yes"/>
      <point x="1122" y="1832"/>
      <point x="1120" y="1844"/>
      <point x="1120" y="1856" type="curve"/>
      <point x="995" y="1856" type="line" smooth="yes"/>
      <point x="966" y="1856"/>
      <point x="962" y="1822"/>
      <point x="962" y="1788" type="curve" smooth="yes"/>
      <point x="962" y="1682"/>
      <point x="909" y="1560"/>
      <point x="728" y="1560" type="curve" smooth="yes"/>
      <point x="542" y="1560"/>
      <point x="485" y="1682"/>
      <point x="485" y="1788" type="curve" smooth="yes"/>
      <point x="485" y="1822"/>
      <point x="480" y="1856"/>
    </contour>
    <contour>
      <point x="118" y="98" type="line"/>
      <point x="-17" y="80" type="line"/>
      <point x="-17" y="0" type="line"/>
      <point x="456" y="0" type="line"/>
      <point x="456" y="80" type="line"/>
      <point x="268" y="98" type="line"/>
      <point x="380" y="364" type="line"/>
      <point x="1042" y="364" type="line"/>
      <point x="1155" y="96" type="line"/>
      <point x="967" y="80" type="line"/>
      <point x="967" y="0" type="line"/>
      <point x="1481" y="0" type="line"/>
      <point x="1481" y="80" type="line"/>
      <point x="1343" y="96" type="line"/>
      <point x="818" y="1304" type="line"/>
      <point x="650" y="1304" type="line"/>
    </contour>
    <contour>
      <point x="1005" y="460" type="line"/>
      <point x="418" y="460" type="line"/>
      <point x="655" y="1026" type="line"/>
      <point x="714" y="1190" type="line"/>
      <point x="770" y="1030" type="line"/>
    </contour>
  </outline>
</glyph>
<glyph name="adieresis-cy.sc" format="1">
  <advance width="1464"/>
  <outline>
    <contour>
      <point x="948" y="1486" type="curve"/>
      <point x="1037" y="1486"/>
      <point x="1081" y="1546"/>
      <point x="1081" y="1616" type="curve" smooth="yes"/>
      <point x="1081" y="1674"/>
      <point x="1039" y="1732"/>
      <point x="967" y="1732" type="curve" smooth="yes"/>
      <point x="884" y="1732"/>
      <point x="841" y="1666"/>
      <point x="841" y="1600" type="curve" smooth="yes"/>
      <point x="841" y="1536"/>
      <point x="884" y="1486"/>
    </contour>
    <contour>
      <point x="475" y="1486" type="curve" smooth="yes"/>
      <point x="561" y="1486"/>
      <point x="605" y="1546"/>
      <point x="605" y="1616" type="curve" smooth="yes"/>
      <point x="605" y="1674"/>
      <point x="564" y="1732"/>
      <point x="492" y="1732" type="curve"/>
      <point x="407" y="1732"/>
      <point x="366" y="1666"/>
      <point x="366" y="1600" type="curve" smooth="yes"/>
      <point x="366" y="1536"/>
      <point x="407" y="1486"/>
    </contour>
    <contour>
      <point x="118" y="98" type="line"/>
      <point x="-17" y="80" type="line"/>
      <point x="-17" y="0" type="line"/>
      <point x="456" y="0" type="line"/>
      <point x="456" y="80" type="line"/>
      <point x="268" y="98" type="line"/>
      <point x="380" y="364" type="line"/>
      <point x="1042" y="364" type="line"/>
      <point x="1155" y="96" type="line"/>
      <point x="967" y="80" type="line"/>
      <point x="967" y="0" type="line"/>
      <point x="1481" y="0" type="line"/>
      <point x="1481" y="80" type="line"/>
      <point x="1343" y="96" type="line"/>
      <point x="818" y="1304" type="line"/>
      <point x="650" y="1304" type="line"/>
    </contour>
    <contour>
      <point x="1005" y="460" type="line"/>
      <point x="418" y="460" type="line"/>
      <point x="655" y="1026" type="line"/>
      <point x="714" y="1190" type="line"/>
      <point x="770" y="1030" type="line"/>
    </contour>
  </outline>
</glyph>
<glyph name="aie-cy.sc" format="1">
  <advance width="1933"/>
  <outline>
    <contour>
      <point x="968" y="1272" type="move" name="top"/>
    </contour>
    <contour>
      <point x="921" y="-144" type="move" name="mark0"/>
    </contour>
    <contour>
      <point x="968" y="0" type="move" name="bottom"/>
    </contour>
    <contour>
      <point x="852" y="96" type="line"/>
      <point x="665" y="80" type="line"/>
      <point x="665" y="0" type="line"/>
      <point x="1811" y="0" type="line"/>
      <point x="1893" y="302" type="line"/>
      <point x="1792" y="328" type="line"/>
      <point x="1670" y="108" type="line"/>
      <point x="1022" y="90" type="line"/>
      <point x="1022" y="620" type="line"/>
      <point x="1406" y="616" type="line"/>
      <point x="1432" y="466" type="line"/>
      <point x="1537" y="466" type="line"/>
      <point x="1537" y="858" type="line"/>
      <point x="1432" y="858" type="line"/>
      <point x="1406" y="714" type="line"/>
      <point x="1022" y="710" type="line"/>
      <point x="1022" y="1210" type="line"/>
      <point x="1583" y="1200" type="line"/>
      <point x="1646" y="1024" type="line"/>
      <point x="1748" y="1024" type="line"/>
      <point x="1710" y="1292" type="line"/>
      <point x="290" y="1292" type="line"/>
      <point x="290" y="1214" type="line"/>
      <point x="577" y="1194" type="line"/>
      <point x="-32" y="96" type="line"/>
      <point x="-186" y="80" type="line"/>
      <point x="-186" y="0" type="line"/>
      <point x="295" y="0" type="line"/>
      <point x="295" y="80" type="line"/>
      <point x="132" y="96" type="line"/>
      <point x="280" y="378" type="line"/>
      <point x="852" y="378" type="line"/>
    </contour>
    <contour>
      <point x="852" y="476" type="line"/>
      <point x="325" y="476" type="line"/>
      <point x="587" y="976" type="line"/>
      <point x="705" y="1202" type="line"/>
      <point x="852" y="1202" type="line"/>
    </contour>
  </outline>
</glyph>
<glyph name="cheabkhasian-cy.sc" format="1">
  <advance width="1639"/>
  <outline>
    <contour>
      <point x="1511" y="46" type="curve"/>
      <point x="1521" y="302" type="line"/>
      <point x="1408" y="304" type="line"/>
      <point x="1366" y="162" type="line"/>
      <point x="1305" y="116"/>
      <point x="1198" y="72"/>
      <point x="1005" y="72" type="curve" smooth="yes"/>
      <point x="689" y="72"/>
      <point x="519" y="330"/>
      <point x="520" y="624" type="curve"/>
      <point x="1541" y="622" type="line"/>
      <point x="1550" y="658"/>
      <point x="1552" y="716"/>
      <point x="1552" y="794" type="curve" smooth="yes"/>
      <point x="1552" y="1124"/>
      <point x="1339" y="1306"/>
      <point x="1022" y="1306" type="curve" smooth="yes"/>
      <point x="661" y="1306"/>
      <point x="384" y="1072"/>
      <point x="352" y="712" type="curve"/>
      <point x="199" y="714"/>
      <point x="149" y="768"/>
      <point x="149" y="816" type="curve" smooth="yes"/>
      <point x="149" y="848"/>
      <point x="177" y="916"/>
      <point x="192" y="932" type="curve"/>
      <point x="50" y="954" type="line"/>
      <point x="26" y="942"/>
      <point x="-6" y="866"/>
      <point x="-6" y="810" type="curve" smooth="yes"/>
      <point x="-6" y="682"/>
      <point x="156" y="622"/>
      <point x="347" y="620" type="curve"/>
      <point x="349" y="236"/>
      <point x="590" y="-20"/>
      <point x="968" y="-20" type="curve" smooth="yes"/>
      <point x="1265" y="-20"/>
      <point x="1393" y="44"/>
    </contour>
    <contour>
      <point x="1365" y="712" type="curve"/>
      <point x="518" y="712" type="line"/>
      <point x="531" y="1074"/>
      <point x="751" y="1210"/>
      <point x="978" y="1210" type="curve" smooth="yes"/>
      <point x="1253" y="1210"/>
      <point x="1374" y="994"/>
      <point x="1374" y="804" type="curve" smooth="yes"/>
      <point x="1374" y="772"/>
      <point x="1372" y="742"/>
    </contour>
  </outline>
</glyph>
<glyph name="chedescender-cy.sc" format="1">
  <advance width="1432"/>
  <outline>
    <contour>
      <point x="1377" y="98" type="curve"/>
      <point x="1131" y="98" type="line"/>
      <point x="1131" y="1192" type="line"/>
      <point x="1324" y="1210" type="line"/>
      <point x="1324" y="1292" type="line"/>
      <point x="765" y="1292" type="line"/>
      <point x="765" y="1210" type="line"/>
      <point x="963" y="1192" type="line"/>
      <point x="963" y="666" type="line"/>
      <point x="900" y="638"/>
      <point x="740" y="612"/>
      <point x="626" y="612" type="curve" smooth="yes"/>
      <point x="344" y="612"/>
      <point x="313" y="668"/>
      <point x="313" y="948" type="curve" smooth="yes"/>
      <point x="313" y="1190" type="line"/>
      <point x="508" y="1210" type="line"/>
      <point x="508" y="1292" type="line"/>
      <point x="12" y="1292" type="line"/>
      <point x="12" y="1210" type="line"/>
      <point x="145" y="1190" type="line"/>
      <point x="145" y="896" type="line" smooth="yes"/>
      <point x="145" y="636"/>
      <point x="222" y="500"/>
      <point x="539" y="500" type="curve" smooth="yes"/>
      <point x="670" y="500"/>
      <point x="857" y="526"/>
      <point x="963" y="574" type="curve"/>
      <point x="963" y="98" type="line"/>
      <point x="743" y="80" type="line"/>
      <point x="743" y="0" type="line"/>
      <point x="1191" y="0" type="line"/>
      <point x="1192" y="-14"/>
      <point x="1206" y="-282"/>
      <point x="1205" y="-320" type="curve"/>
      <point x="1322" y="-320" type="line"/>
      <point x="1339" y="-196"/>
      <point x="1358" y="-38"/>
    </contour>
  </outline>
</glyph>
<glyph name="chekhakassian-cy.sc" format="1">
  <advance width="1432"/>
  <outline>
    <contour>
      <point x="693" y="-144" type="move" name="mark0"/>
    </contour>
    <contour>
      <point x="910" y="0" type="curve"/>
      <point x="1326" y="0" type="line"/>
      <point x="1326" y="80" type="line"/>
      <point x="1131" y="98" type="line"/>
      <point x="1131" y="1192" type="line"/>
      <point x="1324" y="1210" type="line"/>
      <point x="1324" y="1292" type="line"/>
      <point x="765" y="1292" type="line"/>
      <point x="765" y="1210" type="line"/>
      <point x="963" y="1192" type="line"/>
      <point x="963" y="666" type="line"/>
      <point x="900" y="638"/>
      <point x="740" y="612"/>
      <point x="626" y="612" type="curve" smooth="yes"/>
      <point x="344" y="612"/>
      <point x="313" y="668"/>
      <point x="313" y="948" type="curve" smooth="yes"/>
      <point x="313" y="1190" type="line"/>
      <point x="508" y="1210" type="line"/>
      <point x="508" y="1292" type="line"/>
      <point x="12" y="1292" type="line"/>
      <point x="12" y="1210" type="line"/>
      <point x="145" y="1190" type="line"/>
      <point x="145" y="896" type="line" smooth="yes"/>
      <point x="145" y="636"/>
      <point x="222" y="500"/>
      <point x="539" y="500" type="curve" smooth="yes"/>
      <point x="670" y="500"/>
      <point x="857" y="526"/>
      <point x="963" y="574" type="curve"/>
      <point x="963" y="100" type="line"/>
      <point x="739" y="100" type="line"/>
      <point x="740" y="70"/>
      <point x="715" y="-308"/>
      <point x="715" y="-320" type="curve"/>
      <point x="830" y="-320" type="line"/>
      <point x="841" y="-280"/>
      <point x="907" y="-12"/>
    </contour>
  </outline>
</glyph>
<glyph name="de-cy.loclBGR.sc" format="1">
  <advance width="1590"/>
  <outline>
    <contour>
      <point x="1547" y="98" type="curve"/>
      <point x="1381" y="98" type="line"/>
      <point x="917" y="1304" type="line"/>
      <point x="749" y="1304" type="line"/>
      <point x="221" y="98" type="line"/>
      <point x="65" y="98" type="line"/>
      <point x="61" y="66"/>
      <point x="38" y="-306"/>
      <point x="38" y="-320" type="curve"/>
      <point x="151" y="-320" type="line"/>
      <point x="192" y="-160"/>
      <point x="233" y="-8"/>
      <point x="233" y="0" type="curve"/>
      <point x="1359" y="0" type="line"/>
      <point x="1362" y="-18"/>
      <point x="1378" y="-278"/>
      <point x="1380" y="-320" type="curve"/>
      <point x="1493" y="-320" type="line"/>
      <point x="1495" y="-314"/>
      <point x="1547" y="82"/>
    </contour>
    <contour>
      <point x="811" y="1190" type="line"/>
      <point x="867" y="1030" type="line"/>
      <point x="1192" y="98" type="line"/>
      <point x="371" y="98" type="line"/>
      <point x="754" y="1026" type="line"/>
    </contour>
  </outline>
</glyph>
<glyph name="de-cy.sc" format="1">
  <advance width="1523"/>
  <outline>
    <contour>
      <point x="1414" y="98" type="curve"/>
      <point x="1228" y="98" type="line"/>
      <point x="1228" y="1192" type="line"/>
      <point x="1428" y="1210" type="line"/>
      <point x="1428" y="1292" type="line"/>
      <point x="284" y="1292" type="line"/>
      <point x="284" y="1210" type="line"/>
      <point x="500" y="1192" type="line"/>
      <point x="500" y="1078" type="line" smooth="yes"/>
      <point x="500" y="466"/>
      <point x="288" y="168"/>
      <point x="223" y="98" type="curve"/>
      <point x="67" y="98" type="line"/>
      <point x="67" y="70"/>
      <point x="42" y="-308"/>
      <point x="42" y="-320" type="curve"/>
      <point x="155" y="-320" type="line"/>
      <point x="166" y="-276"/>
      <point x="235" y="-6"/>
      <point x="237" y="0" type="curve"/>
      <point x="1228" y="0" type="line"/>
      <point x="1231" y="-14"/>
      <point x="1247" y="-288"/>
      <point x="1249" y="-320" type="curve"/>
      <point x="1362" y="-320" type="line"/>
      <point x="1364" y="-312"/>
      <point x="1414" y="86"/>
    </contour>
    <contour>
      <point x="615" y="1068" type="curve"/>
      <point x="615" y="1196" type="line"/>
      <point x="1062" y="1196" type="line"/>
      <point x="1060" y="98" type="line"/>
      <point x="383" y="98" type="line"/>
      <point x="447" y="180"/>
      <point x="617" y="522"/>
    </contour>
  </outline>
</glyph>
<glyph name="dze-cy.sc" format="1">
  <advance width="1249"/>
  <outline>
    <contour>
      <point x="689" y="1272" type="move" name="top"/>
    </contour>
    <contour>
      <point x="624" y="-144" type="move" name="mark0"/>
    </contour>
    <contour>
      <point x="626" y="0" type="move" name="bottom"/>
    </contour>
    <contour>
      <point x="607" y="-20" type="curve" smooth="yes"/>
      <point x="953" y="-20"/>
      <point x="1154" y="172"/>
      <point x="1154" y="350" type="curve" smooth="yes"/>
      <point x="1154" y="560"/>
      <point x="908" y="650"/>
      <point x="701" y="730" type="curve" smooth="yes"/>
      <point x="480" y="814"/>
      <point x="327" y="870"/>
      <point x="327" y="1016" type="curve" smooth="yes"/>
      <point x="327" y="1150"/>
      <point x="445" y="1220"/>
      <point x="650" y="1220" type="curve" smooth="yes"/>
      <point x="773" y="1220"/>
      <point x="879" y="1190"/>
      <point x="906" y="1170" type="curve"/>
      <point x="942" y="956" type="line"/>
      <point x="1047" y="956" type="line"/>
      <point x="1060" y="1244" type="line"/>
      <point x="998" y="1252"/>
      <point x="848" y="1308"/>
      <point x="661" y="1308" type="curve" smooth="yes"/>
      <point x="372" y="1308"/>
      <point x="163" y="1170"/>
      <point x="163" y="976" type="curve" smooth="yes"/>
      <point x="163" y="748"/>
      <point x="420" y="652"/>
      <point x="594" y="590" type="curve" smooth="yes"/>
      <point x="800" y="516"/>
      <point x="974" y="454"/>
      <point x="974" y="304" type="curve" smooth="yes"/>
      <point x="974" y="162"/>
      <point x="850" y="72"/>
      <point x="620" y="72" type="curve" smooth="yes"/>
      <point x="478" y="72"/>
      <point x="348" y="108"/>
      <point x="300" y="146" type="curve"/>
      <point x="268" y="372" type="line"/>
      <point x="160" y="372" type="line"/>
      <point x="142" y="60" type="line"/>
      <point x="208" y="56"/>
      <point x="369" y="-20"/>
    </contour>
  </outline>
</glyph>
<glyph name="dzeabkhasian-cy.sc" format="1">
  <advance width="1344"/>
  <outline>
    <contour>
      <point x="648" y="736" type="curve"/>
      <point x="1169" y="1212" type="line"/>
      <point x="1169" y="1292" type="line"/>
      <point x="207" y="1292" type="line"/>
      <point x="229" y="992" type="line"/>
      <point x="336" y="992" type="line"/>
      <point x="368" y="1174" type="line"/>
      <point x="964" y="1180" type="line"/>
      <point x="965" y="1164"/>
      <point x="495" y="756"/>
      <point x="483" y="728" type="curve"/>
      <point x="508" y="664" type="line"/>
      <point x="536" y="664"/>
      <point x="567" y="664"/>
      <point x="596" y="664" type="curve"/>
      <point x="927" y="654"/>
      <point x="1035" y="554"/>
      <point x="1035" y="382" type="curve" smooth="yes"/>
      <point x="1035" y="224"/>
      <point x="895" y="86"/>
      <point x="600" y="86" type="curve" smooth="yes"/>
      <point x="427" y="86"/>
      <point x="369" y="118"/>
      <point x="349" y="126" type="curve"/>
      <point x="304" y="336" type="line"/>
      <point x="205" y="336" type="line"/>
      <point x="166" y="52" type="line"/>
      <point x="220" y="38"/>
      <point x="347" y="-12"/>
      <point x="576" y="-12" type="curve" smooth="yes"/>
      <point x="953" y="-12"/>
      <point x="1216" y="156"/>
      <point x="1216" y="408" type="curve" smooth="yes"/>
      <point x="1216" y="628"/>
      <point x="1066" y="742"/>
      <point x="778" y="742" type="curve" smooth="yes"/>
      <point x="731" y="742"/>
      <point x="690" y="740"/>
    </contour>
  </outline>
</glyph>
<glyph name="dzhe-cy.sc" format="1">
  <advance width="1678"/>
  <outline>
    <contour>
      <point x="949" y="0" type="curve"/>
      <point x="1568" y="0" type="line"/>
      <point x="1568" y="80" type="line"/>
      <point x="1377" y="96" type="line"/>
      <point x="1377" y="1192" type="line"/>
      <point x="1545" y="1210" type="line"/>
      <point x="1545" y="1292" type="line"/>
      <point x="1031" y="1292" type="line"/>
      <point x="1031" y="1210" type="line"/>
      <point x="1209" y="1192" type="line"/>
      <point x="1209" y="94" type="line"/>
      <point x="466" y="94" type="line"/>
      <point x="466" y="1192" type="line"/>
      <point x="670" y="1210" type="line"/>
      <point x="670" y="1292" type="line"/>
      <point x="121" y="1292" type="line"/>
      <point x="121" y="1210" type="line"/>
      <point x="301" y="1192" type="line"/>
      <point x="301" y="98" type="line"/>
      <point x="112" y="80" type="line"/>
      <point x="112" y="0" type="line"/>
      <point x="757" y="0" type="line"/>
      <point x="759" y="-4"/>
      <point x="793" y="-302"/>
      <point x="793" y="-320" type="curve"/>
      <point x="915" y="-320" type="line"/>
      <point x="927" y="-208"/>
      <point x="939" y="-92"/>
    </contour>
  </outline>
</glyph>
<glyph name="ef-cy.loclBGR.sc" format="1">
  <advance width="1674"/>
  <outline>
    <contour>
      <point x="917" y="1190" type="curve"/>
      <point x="917" y="1276" type="line"/>
      <point x="1126" y="1296" type="line"/>
      <point x="1126" y="1378" type="line"/>
      <point x="546" y="1378" type="line"/>
      <point x="546" y="1296" type="line"/>
      <point x="757" y="1276" type="line"/>
      <point x="757" y="1188" type="line"/>
      <point x="329" y="1166"/>
      <point x="67" y="894"/>
      <point x="67" y="642" type="curve" smooth="yes"/>
      <point x="67" y="410"/>
      <point x="185" y="100"/>
      <point x="757" y="82" type="curve"/>
      <point x="757" y="-16" type="line"/>
      <point x="546" y="-38" type="line"/>
      <point x="546" y="-120" type="line"/>
      <point x="1128" y="-120" type="line"/>
      <point x="1128" y="-40" type="line"/>
      <point x="917" y="-18" type="line"/>
      <point x="917" y="82" type="line"/>
      <point x="1343" y="108"/>
      <point x="1607" y="392"/>
      <point x="1607" y="648" type="curve" smooth="yes"/>
      <point x="1607" y="880"/>
      <point x="1493" y="1174"/>
    </contour>
    <contour>
      <point x="757" y="1114" type="curve"/>
      <point x="757" y="158" type="line"/>
      <point x="330" y="184"/>
      <point x="259" y="470"/>
      <point x="259" y="652" type="curve" smooth="yes"/>
      <point x="259" y="844"/>
      <point x="353" y="1092"/>
    </contour>
    <contour>
      <point x="917" y="158" type="curve"/>
      <point x="917" y="1116" type="line"/>
      <point x="1341" y="1092"/>
      <point x="1412" y="832"/>
      <point x="1412" y="646" type="curve" smooth="yes"/>
      <point x="1412" y="450"/>
      <point x="1323" y="184"/>
    </contour>
  </outline>
</glyph>
<glyph name="el-cy.loclBGR.sc" format="1">
  <advance width="1597"/>
  <outline>
    <contour>
      <point x="710" y="1304" type="line"/>
      <point x="182" y="98" type="line"/>
      <point x="47" y="80" type="line"/>
      <point x="47" y="0" type="line"/>
      <point x="521" y="0" type="line"/>
      <point x="521" y="80" type="line"/>
      <point x="332" y="98" type="line"/>
      <point x="715" y="1026" type="line"/>
      <point x="771" y="1190" type="line"/>
      <point x="828" y="1030" type="line"/>
      <point x="1219" y="96" type="line"/>
      <point x="1032" y="80" type="line"/>
      <point x="1032" y="0" type="line"/>
      <point x="1546" y="0" type="line"/>
      <point x="1546" y="80" type="line"/>
      <point x="1408" y="96" type="line"/>
      <point x="878" y="1304" type="line"/>
    </contour>
  </outline>
</glyph>
<glyph name="eldescender-cy.sc" format="1">
  <advance width="1568"/>
  <outline>
    <contour>
      <point x="1485" y="98" type="curve"/>
      <point x="1235" y="98" type="line"/>
      <point x="1235" y="1192" type="line"/>
      <point x="1434" y="1210" type="line"/>
      <point x="1434" y="1292" type="line"/>
      <point x="272" y="1292" type="line"/>
      <point x="272" y="1210" type="line"/>
      <point x="505" y="1192" type="line"/>
      <point x="505" y="1044" type="line" smooth="yes"/>
      <point x="505" y="588"/>
      <point x="443" y="324"/>
      <point x="333" y="196" type="curve"/>
      <point x="301" y="150"/>
      <point x="263" y="130"/>
      <point x="211" y="130" type="curve" smooth="yes"/>
      <point x="126" y="130"/>
      <point x="77" y="134"/>
      <point x="55" y="138" type="curve"/>
      <point x="65" y="0" type="line"/>
      <point x="90" y="-4"/>
      <point x="143" y="-10"/>
      <point x="209" y="-10" type="curve" smooth="yes"/>
      <point x="307" y="-10"/>
      <point x="379" y="28"/>
      <point x="441" y="114" type="curve" smooth="yes"/>
      <point x="556" y="272"/>
      <point x="621" y="602"/>
      <point x="621" y="1028" type="curve" smooth="yes"/>
      <point x="621" y="1192" type="line"/>
      <point x="1070" y="1192" type="line"/>
      <point x="1067" y="98" type="line"/>
      <point x="852" y="80" type="line"/>
      <point x="852" y="0" type="line"/>
      <point x="1299" y="0" type="line"/>
      <point x="1300" y="-14"/>
      <point x="1316" y="-278"/>
      <point x="1316" y="-320" type="curve"/>
      <point x="1430" y="-320" type="line"/>
      <point x="1431" y="-314"/>
      <point x="1485" y="80"/>
    </contour>
  </outline>
</glyph>
<glyph name="elhook-cy.sc" format="1">
  <advance width="1532"/>
  <outline>
    <contour>
      <point x="1235" y="478" type="curve" smooth="yes"/>
      <point x="1235" y="1192" type="line"/>
      <point x="1434" y="1210" type="line"/>
      <point x="1434" y="1292" type="line"/>
      <point x="272" y="1292" type="line"/>
      <point x="272" y="1210" type="line"/>
      <point x="505" y="1192" type="line"/>
      <point x="505" y="1044" type="line" smooth="yes"/>
      <point x="505" y="588"/>
      <point x="443" y="324"/>
      <point x="333" y="196" type="curve"/>
      <point x="301" y="150"/>
      <point x="263" y="130"/>
      <point x="211" y="130" type="curve" smooth="yes"/>
      <point x="126" y="130"/>
      <point x="77" y="134"/>
      <point x="55" y="138" type="curve"/>
      <point x="65" y="0" type="line"/>
      <point x="90" y="-4"/>
      <point x="143" y="-10"/>
      <point x="209" y="-10" type="curve" smooth="yes"/>
      <point x="307" y="-10"/>
      <point x="379" y="28"/>
      <point x="441" y="114" type="curve" smooth="yes"/>
      <point x="556" y="272"/>
      <point x="621" y="602"/>
      <point x="621" y="1028" type="curve" smooth="yes"/>
      <point x="621" y="1192" type="line"/>
      <point x="1070" y="1192" type="line"/>
      <point x="1065" y="424" type="line" smooth="yes"/>
      <point x="1063" y="176"/>
      <point x="1061" y="86"/>
      <point x="1021" y="-14" type="curve" smooth="yes"/>
      <point x="976" y="-134"/>
      <point x="865" y="-210"/>
      <point x="740" y="-238" type="curve"/>
      <point x="786" y="-306" type="line"/>
      <point x="956" y="-278"/>
      <point x="1162" y="-168"/>
      <point x="1214" y="34" type="curve"/>
      <point x="1231" y="124"/>
      <point x="1235" y="286"/>
    </contour>
  </outline>
</glyph>
<glyph name="em-cy.sc" format="1">
  <advance width="2060"/>
  <outline>
    <contour>
      <point x="1047" y="1272" type="move" name="top"/>
    </contour>
    <contour>
      <point x="1031" y="-144" type="move" name="mark0"/>
    </contour>
    <contour>
      <point x="1047" y="0" type="move" name="bottom"/>
    </contour>
    <contour>
      <point x="200" y="96" type="line"/>
      <point x="21" y="80" type="line"/>
      <point x="21" y="0" type="line"/>
      <point x="549" y="0" type="line"/>
      <point x="549" y="80" type="line"/>
      <point x="340" y="98" type="line"/>
      <point x="428" y="884" type="line"/>
      <point x="482" y="1226" type="line"/>
      <point x="608" y="894" type="line"/>
      <point x="964" y="60" type="line"/>
      <point x="1049" y="60" type="line"/>
      <point x="1434" y="980" type="line"/>
      <point x="1527" y="1226" type="line"/>
      <point x="1574" y="884" type="line"/>
      <point x="1670" y="98" type="line"/>
      <point x="1473" y="80" type="line"/>
      <point x="1473" y="0" type="line"/>
      <point x="2039" y="0" type="line"/>
      <point x="2039" y="80" type="line"/>
      <point x="1846" y="98" type="line"/>
      <point x="1679" y="1192" type="line"/>
      <point x="1924" y="1210" type="line"/>
      <point x="1924" y="1292" type="line"/>
      <point x="1421" y="1292" type="line"/>
      <point x="1097" y="500" type="line"/>
      <point x="1025" y="274" type="line"/>
      <point x="946" y="500" type="line"/>
      <point x="625" y="1292" type="line"/>
      <point x="122" y="1292" type="line"/>
      <point x="122" y="1210" type="line"/>
      <point x="370" y="1192" type="line"/>
    </contour>
  </outline>
</glyph>
<glyph name="emtail-cy.sc" format="1">
  <advance width="2104"/>
  <outline>
    <contour>
      <point x="1014" y="-144" type="move" name="mark0"/>
    </contour>
    <contour>
      <point x="2128" y="0" type="curve"/>
      <point x="2128" y="94" type="line"/>
      <point x="1903" y="94" type="line"/>
      <point x="1711" y="1192" type="line"/>
      <point x="1924" y="1210" type="line"/>
      <point x="1924" y="1292" type="line"/>
      <point x="1467" y="1292" type="line"/>
      <point x="1122" y="428" type="line"/>
      <point x="1057" y="204" type="line"/>
      <point x="987" y="428" type="line"/>
      <point x="621" y="1292" type="line"/>
      <point x="137" y="1292" type="line"/>
      <point x="137" y="1210" type="line"/>
      <point x="367" y="1192" type="line"/>
      <point x="195" y="98" type="line"/>
      <point x="12" y="80" type="line"/>
      <point x="12" y="0" type="line"/>
      <point x="544" y="0" type="line"/>
      <point x="544" y="80" type="line"/>
      <point x="342" y="98" type="line"/>
      <point x="438" y="884" type="line"/>
      <point x="478" y="1226" type="line"/>
      <point x="611" y="894" type="line"/>
      <point x="1001" y="-14" type="line"/>
      <point x="1080" y="-14" type="line"/>
      <point x="1480" y="994" type="line"/>
      <point x="1556" y="1224" type="line"/>
      <point x="1612" y="884" type="line"/>
      <point x="1725" y="98" type="line"/>
      <point x="1535" y="80" type="line"/>
      <point x="1535" y="0" type="line"/>
      <point x="1978" y="0" type="line"/>
      <point x="1972" y="-16"/>
      <point x="1890" y="-304"/>
      <point x="1887" y="-320" type="curve"/>
      <point x="2005" y="-320" type="line"/>
      <point x="2015" y="-304"/>
      <point x="2123" y="-22"/>
    </contour>
  </outline>
</glyph>
<glyph name="en-cy.loclBGR.sc" format="1">
  <advance width="1679"/>
  <outline>
    <contour>
      <point x="264" y="96" type="line"/>
      <point x="88" y="80" type="line"/>
      <point x="88" y="0" type="line"/>
      <point x="620" y="0" type="line"/>
      <point x="620" y="80" type="line"/>
      <point x="434" y="96" type="line"/>
      <point x="434" y="612" type="line"/>
      <point x="1245" y="612" type="line"/>
      <point x="1245" y="98" type="line"/>
      <point x="1064" y="80" type="line"/>
      <point x="1064" y="0" type="line"/>
      <point x="1591" y="0" type="line"/>
      <point x="1591" y="80" type="line"/>
      <point x="1416" y="96" type="line"/>
      <point x="1416" y="1192" type="line"/>
      <point x="1582" y="1210" type="line"/>
      <point x="1582" y="1292" type="line"/>
      <point x="1066" y="1292" type="line"/>
      <point x="1066" y="1210" type="line"/>
      <point x="1245" y="1192" type="line"/>
      <point x="1245" y="714" type="line"/>
      <point x="434" y="714" type="line"/>
      <point x="434" y="1192" type="line"/>
      <point x="617" y="1210" type="line"/>
      <point x="617" y="1292" type="line"/>
      <point x="91" y="1292" type="line"/>
      <point x="91" y="1210" type="line"/>
      <point x="264" y="1192" type="line"/>
    </contour>
  </outline>
</glyph>
<glyph name="endescender-cy.sc" format="1">
  <advance width="1749"/>
  <outline>
    <contour>
      <point x="872" y="-144" type="move" name="mark0"/>
    </contour>
    <contour>
      <point x="1666" y="98" type="curve"/>
      <point x="1451" y="98" type="line"/>
      <point x="1451" y="1192" type="line"/>
      <point x="1626" y="1210" type="line"/>
      <point x="1626" y="1292" type="line"/>
      <point x="1103" y="1292" type="line"/>
      <point x="1103" y="1210" type="line"/>
      <point x="1280" y="1192" type="line"/>
      <point x="1280" y="714" type="line"/>
      <point x="469" y="714" type="line"/>
      <point x="469" y="1192" type="line"/>
      <point x="652" y="1210" type="line"/>
      <point x="652" y="1292" type="line"/>
      <point x="126" y="1292" type="line"/>
      <point x="126" y="1210" type="line"/>
      <point x="299" y="1192" type="line"/>
      <point x="299" y="96" type="line"/>
      <point x="119" y="80" type="line"/>
      <point x="119" y="0" type="line"/>
      <point x="654" y="0" type="line"/>
      <point x="654" y="80" type="line"/>
      <point x="469" y="96" type="line"/>
      <point x="469" y="612" type="line"/>
      <point x="1280" y="612" type="line"/>
      <point x="1280" y="98" type="line"/>
      <point x="1101" y="80" type="line"/>
      <point x="1101" y="0" type="line"/>
      <point x="1478" y="0" type="line"/>
      <point x="1481" y="-20"/>
      <point x="1495" y="-288"/>
      <point x="1497" y="-320" type="curve"/>
      <point x="1611" y="-320" type="line"/>
      <point x="1613" y="-310"/>
      <point x="1666" y="84"/>
    </contour>
  </outline>
</glyph>
<glyph name="enghe-cy.sc" format="1">
  <advance width="2115"/>
  <outline>
    <contour>
      <point x="124" y="1292" type="line"/>
      <point x="124" y="1210" type="line"/>
      <point x="303" y="1192" type="line"/>
      <point x="303" y="96" type="line"/>
      <point x="115" y="80" type="line"/>
      <point x="115" y="0" type="line"/>
      <point x="671" y="0" type="line"/>
      <point x="671" y="80" type="line"/>
      <point x="471" y="98" type="line"/>
      <point x="471" y="612" type="line"/>
      <point x="1285" y="612" type="line"/>
      <point x="1285" y="98" type="line"/>
      <point x="1096" y="80" type="line"/>
      <point x="1096" y="0" type="line"/>
      <point x="1633" y="0" type="line"/>
      <point x="1633" y="80" type="line"/>
      <point x="1455" y="98" type="line"/>
      <point x="1455" y="1208" type="line"/>
      <point x="1847" y="1188" type="line"/>
      <point x="1900" y="866" type="line"/>
      <point x="2027" y="866" type="line"/>
      <point x="2003" y="1292" type="line"/>
      <point x="1094" y="1292" type="line"/>
      <point x="1094" y="1210" type="line"/>
      <point x="1285" y="1192" type="line"/>
      <point x="1285" y="714" type="line"/>
      <point x="471" y="714" type="line"/>
      <point x="471" y="1192" type="line"/>
      <point x="671" y="1210" type="line"/>
      <point x="671" y="1292" type="line"/>
    </contour>
  </outline>
</glyph>
<glyph name="enlefthook-cy.sc" format="1">
  <advance width="1724"/>
  <outline>
    <contour>
      <point x="495" y="478" type="curve" smooth="yes"/>
      <point x="495" y="612" type="line"/>
      <point x="1285" y="612" type="line"/>
      <point x="1285" y="98" type="line"/>
      <point x="1103" y="80" type="line"/>
      <point x="1103" y="0" type="line"/>
      <point x="1630" y="0" type="line"/>
      <point x="1630" y="80" type="line"/>
      <point x="1455" y="96" type="line"/>
      <point x="1455" y="1192" type="line"/>
      <point x="1621" y="1210" type="line"/>
      <point x="1621" y="1292" type="line"/>
      <point x="1105" y="1292" type="line"/>
      <point x="1105" y="1210" type="line"/>
      <point x="1285" y="1192" type="line"/>
      <point x="1285" y="714" type="line"/>
      <point x="495" y="714" type="line"/>
      <point x="495" y="1192" type="line"/>
      <point x="678" y="1210" type="line"/>
      <point x="678" y="1292" type="line"/>
      <point x="152" y="1292" type="line"/>
      <point x="152" y="1210" type="line"/>
      <point x="325" y="1192" type="line"/>
      <point x="325" y="424" type="line" smooth="yes"/>
      <point x="325" y="200"/>
      <point x="326" y="92"/>
      <point x="283" y="-16" type="curve" smooth="yes"/>
      <point x="240" y="-132"/>
      <point x="127" y="-210"/>
      <point x="2" y="-238" type="curve"/>
      <point x="48" y="-306" type="line"/>
      <point x="228" y="-276"/>
      <point x="422" y="-164"/>
      <point x="476" y="34" type="curve"/>
      <point x="495" y="138"/>
      <point x="495" y="282"/>
    </contour>
  </outline>
</glyph>
<glyph name="entail-cy.sc" format="1">
  <advance width="1747"/>
  <outline>
    <contour>
      <point x="1660" y="0" type="curve"/>
      <point x="1660" y="96" type="line"/>
      <point x="1453" y="96" type="line"/>
      <point x="1453" y="1192" type="line"/>
      <point x="1625" y="1210" type="line"/>
      <point x="1625" y="1292" type="line"/>
      <point x="1103" y="1292" type="line"/>
      <point x="1103" y="1210" type="line"/>
      <point x="1281" y="1192" type="line"/>
      <point x="1281" y="714" type="line"/>
      <point x="469" y="714" type="line"/>
      <point x="469" y="1192" type="line"/>
      <point x="652" y="1210" type="line"/>
      <point x="652" y="1292" type="line"/>
      <point x="126" y="1292" type="line"/>
      <point x="126" y="1210" type="line"/>
      <point x="299" y="1192" type="line"/>
      <point x="299" y="96" type="line"/>
      <point x="119" y="80" type="line"/>
      <point x="119" y="0" type="line"/>
      <point x="654" y="0" type="line"/>
      <point x="654" y="80" type="line"/>
      <point x="469" y="98" type="line"/>
      <point x="469" y="612" type="line"/>
      <point x="1281" y="612" type="line"/>
      <point x="1281" y="98" type="line"/>
      <point x="1101" y="80" type="line"/>
      <point x="1101" y="0" type="line"/>
      <point x="1505" y="0" type="line"/>
      <point x="1472" y="-100"/>
      <point x="1444" y="-214"/>
      <point x="1412" y="-320" type="curve"/>
      <point x="1532" y="-320" type="line"/>
      <point x="1537" y="-310"/>
      <point x="1656" y="-18"/>
    </contour>
  </outline>
</glyph>
<glyph name="er-cy.sc" format="1">
  <advance width="1360"/>
  <outline>
    <contour>
      <point x="745" y="1272" type="move" name="top"/>
    </contour>
    <contour>
      <point x="701" y="-144" type="move" name="mark0"/>
    </contour>
    <contour>
      <point x="686" y="0" type="move" name="bottom"/>
    </contour>
    <contour>
      <point x="299" y="96" type="line"/>
      <point x="117" y="80" type="line"/>
      <point x="117" y="0" type="line"/>
      <point x="762" y="0" type="line"/>
      <point x="762" y="80" type="line"/>
      <point x="469" y="98" type="line"/>
      <point x="469" y="494" type="line"/>
      <point x="488" y="490"/>
      <point x="618" y="486"/>
      <point x="694" y="486" type="curve" smooth="yes"/>
      <point x="1028" y="486"/>
      <point x="1297" y="652"/>
      <point x="1297" y="936" type="curve" smooth="yes"/>
      <point x="1297" y="1168"/>
      <point x="1166" y="1304"/>
      <point x="753" y="1304" type="curve" smooth="yes"/>
      <point x="569" y="1304"/>
      <point x="524" y="1292"/>
      <point x="384" y="1292" type="curve" smooth="yes"/>
      <point x="130" y="1292" type="line"/>
      <point x="130" y="1210" type="line"/>
      <point x="299" y="1192" type="line"/>
    </contour>
    <contour>
      <point x="469" y="584" type="curve"/>
      <point x="469" y="1206" type="line"/>
      <point x="528" y="1206"/>
      <point x="599" y="1216"/>
      <point x="702" y="1216" type="curve" smooth="yes"/>
      <point x="981" y="1216"/>
      <point x="1116" y="1140"/>
      <point x="1116" y="934" type="curve" smooth="yes"/>
      <point x="1116" y="660"/>
      <point x="912" y="576"/>
      <point x="699" y="576" type="curve" smooth="yes"/>
      <point x="605" y="576"/>
      <point x="514" y="578"/>
    </contour>
  </outline>
</glyph>
<glyph name="ertick-cy.sc" format="1">
  <advance width="1362"/>
  <outline>
    <contour>
      <point x="704" y="-144" type="move" name="mark0"/>
    </contour>
    <contour>
      <point x="384" y="1292" type="curve" smooth="yes"/>
      <point x="130" y="1292" type="line"/>
      <point x="130" y="1210" type="line"/>
      <point x="299" y="1192" type="line"/>
      <point x="299" y="96" type="line"/>
      <point x="117" y="80" type="line"/>
      <point x="117" y="0" type="line"/>
      <point x="762" y="0" type="line"/>
      <point x="762" y="80" type="line"/>
      <point x="469" y="98" type="line"/>
      <point x="469" y="494" type="line"/>
      <point x="488" y="490"/>
      <point x="618" y="486"/>
      <point x="694" y="486" type="curve" smooth="yes"/>
      <point x="776" y="486"/>
      <point x="849" y="496"/>
      <point x="921" y="514" type="curve"/>
      <point x="1123" y="316" type="line"/>
      <point x="1206" y="366" type="line"/>
      <point x="1019" y="550" type="line"/>
      <point x="1181" y="620"/>
      <point x="1297" y="750"/>
      <point x="1297" y="936" type="curve" smooth="yes"/>
      <point x="1297" y="1168"/>
      <point x="1166" y="1304"/>
      <point x="753" y="1304" type="curve" smooth="yes"/>
      <point x="569" y="1304"/>
      <point x="524" y="1292"/>
    </contour>
    <contour>
      <point x="946" y="642" type="curve"/>
      <point x="787" y="794" type="line"/>
      <point x="702" y="744" type="line"/>
      <point x="849" y="596" type="line"/>
      <point x="795" y="582"/>
      <point x="745" y="576"/>
      <point x="699" y="576" type="curve" smooth="yes"/>
      <point x="605" y="576"/>
      <point x="514" y="578"/>
      <point x="469" y="584" type="curve"/>
      <point x="469" y="1206" type="line"/>
      <point x="528" y="1206"/>
      <point x="599" y="1216"/>
      <point x="702" y="1216" type="curve" smooth="yes"/>
      <point x="981" y="1216"/>
      <point x="1116" y="1140"/>
      <point x="1116" y="934" type="curve" smooth="yes"/>
      <point x="1116" y="784"/>
      <point x="1046" y="692"/>
    </contour>
  </outline>
</glyph>
<glyph name="esdescender-cy.loclBSH.sc" format="1">
  <advance width="1384"/>
  <outline>
    <contour>
      <point x="860" y="-18" type="curve"/>
      <point x="743" y="-18" type="line"/>
      <point x="778" y="-58"/>
      <point x="807" y="-124"/>
      <point x="807" y="-202" type="curve"/>
      <point x="707" y="-348" type="line"/>
      <point x="707" y="-406"/>
      <point x="754" y="-442"/>
      <point x="817" y="-442" type="curve" smooth="yes"/>
      <point x="902" y="-442"/>
      <point x="957" y="-362"/>
      <point x="957" y="-260" type="curve" smooth="yes"/>
      <point x="957" y="-178"/>
      <point x="914" y="-82"/>
    </contour>
    <contour>
      <point x="801" y="-20" type="curve" smooth="yes"/>
      <point x="1053" y="-20"/>
      <point x="1132" y="42"/>
      <point x="1242" y="46" type="curve"/>
      <point x="1295" y="292" type="line"/>
      <point x="1192" y="304" type="line"/>
      <point x="1109" y="134" type="line"/>
      <point x="1053" y="98"/>
      <point x="979" y="70"/>
      <point x="804" y="70" type="curve" smooth="yes"/>
      <point x="442" y="70"/>
      <point x="276" y="346"/>
      <point x="276" y="666" type="curve" smooth="yes"/>
      <point x="276" y="1022"/>
      <point x="501" y="1218"/>
      <point x="790" y="1218" type="curve" smooth="yes"/>
      <point x="955" y="1218"/>
      <point x="1068" y="1192"/>
      <point x="1106" y="1166" type="curve"/>
      <point x="1153" y="954" type="line"/>
      <point x="1260" y="954" type="line"/>
      <point x="1278" y="1254" type="line"/>
      <point x="1208" y="1266"/>
      <point x="1021" y="1306"/>
      <point x="831" y="1306" type="curve" smooth="yes"/>
      <point x="408" y="1306"/>
      <point x="81" y="1032"/>
      <point x="81" y="638" type="curve" smooth="yes"/>
      <point x="81" y="238"/>
      <point x="341" y="-20"/>
    </contour>
  </outline>
</glyph>
<glyph name="esdescender-cy.sc" format="1">
  <advance width="1377"/>
  <outline>
    <contour>
      <point x="1241" y="46" type="curve"/>
      <point x="1293" y="288" type="line"/>
      <point x="1192" y="300" type="line"/>
      <point x="1107" y="134" type="line"/>
      <point x="1053" y="98"/>
      <point x="981" y="70"/>
      <point x="804" y="70" type="curve" smooth="yes"/>
      <point x="442" y="70"/>
      <point x="276" y="352"/>
      <point x="276" y="666" type="curve" smooth="yes"/>
      <point x="276" y="1022"/>
      <point x="501" y="1218"/>
      <point x="790" y="1218" type="curve" smooth="yes"/>
      <point x="954" y="1218"/>
      <point x="1068" y="1192"/>
      <point x="1106" y="1166" type="curve"/>
      <point x="1153" y="954" type="line"/>
      <point x="1260" y="954" type="line"/>
      <point x="1277" y="1254" type="line"/>
      <point x="1202" y="1266"/>
      <point x="1016" y="1306"/>
      <point x="831" y="1306" type="curve" smooth="yes"/>
      <point x="408" y="1306"/>
      <point x="81" y="1042"/>
      <point x="81" y="650" type="curve" smooth="yes"/>
      <point x="81" y="290"/>
      <point x="291" y="28"/>
      <point x="696" y="-14" type="curve"/>
      <point x="702" y="-70"/>
      <point x="730" y="-302"/>
      <point x="730" y="-320" type="curve"/>
      <point x="852" y="-320" type="line"/>
      <point x="884" y="-30"/>
      <point x="873" y="-118"/>
      <point x="883" y="-14" type="curve"/>
      <point x="1073" y="-4"/>
      <point x="1143" y="42"/>
    </contour>
  </outline>
</glyph>
<glyph name="fita-cy.sc" format="1">
  <advance width="1527"/>
  <outline>
    <contour>
      <point x="749" y="-20" type="curve" smooth="yes"/>
      <point x="1137" y="-14"/>
      <point x="1447" y="252"/>
      <point x="1447" y="660" type="curve" smooth="yes"/>
      <point x="1447" y="1050"/>
      <point x="1211" y="1308"/>
      <point x="785" y="1308" type="curve" smooth="yes"/>
      <point x="394" y="1308"/>
      <point x="83" y="1048"/>
      <point x="83" y="638" type="curve" smooth="yes"/>
      <point x="83" y="248"/>
      <point x="322" y="-26"/>
    </contour>
    <contour>
      <point x="760" y="68" type="curve" smooth="yes"/>
      <point x="479" y="68"/>
      <point x="301" y="258"/>
      <point x="274" y="562" type="curve"/>
      <point x="326" y="596"/>
      <point x="413" y="660"/>
      <point x="524" y="660" type="curve" smooth="yes"/>
      <point x="639" y="660"/>
      <point x="793" y="546"/>
      <point x="961" y="546" type="curve" smooth="yes"/>
      <point x="1093" y="546"/>
      <point x="1191" y="600"/>
      <point x="1254" y="656" type="curve"/>
      <point x="1252" y="282"/>
      <point x="1074" y="68"/>
    </contour>
    <contour>
      <point x="271" y="664" type="curve"/>
      <point x="275" y="1038"/>
      <point x="479" y="1220"/>
      <point x="767" y="1220" type="curve" smooth="yes"/>
      <point x="1042" y="1220"/>
      <point x="1215" y="1044"/>
      <point x="1247" y="756" type="curve"/>
      <point x="1197" y="724"/>
      <point x="1107" y="660"/>
      <point x="996" y="660" type="curve" smooth="yes"/>
      <point x="870" y="660"/>
      <point x="723" y="774"/>
      <point x="556" y="774" type="curve" smooth="yes"/>
      <point x="431" y="774"/>
      <point x="339" y="724"/>
    </contour>
  </outline>
</glyph>
<glyph name="gestrokehook-cy.sc" format="1">
  <advance width="1214"/>
  <outline>
    <contour>
      <point x="849" y="80" type="curve"/>
      <point x="472" y="98" type="line"/>
      <point x="472" y="578" type="line"/>
      <point x="890" y="578" type="line"/>
      <point x="890" y="668" type="line"/>
      <point x="472" y="668" type="line"/>
      <point x="472" y="1208" type="line"/>
      <point x="987" y="1196" type="line"/>
      <point x="1041" y="844" type="line"/>
      <point x="1156" y="844" type="line"/>
      <point x="1149" y="1292" type="line"/>
      <point x="73" y="1292" type="line"/>
      <point x="73" y="1212" type="line"/>
      <point x="297" y="1190" type="line"/>
      <point x="297" y="668" type="line"/>
      <point x="94" y="668" type="line"/>
      <point x="94" y="578" type="line"/>
      <point x="297" y="578" type="line"/>
      <point x="297" y="98" type="line"/>
      <point x="64" y="80" type="line"/>
      <point x="64" y="0" type="line"/>
      <point x="787" y="0" type="line"/>
      <point x="812" y="-56"/>
      <point x="828" y="-112"/>
      <point x="828" y="-152" type="curve" smooth="yes"/>
      <point x="828" y="-258"/>
      <point x="770" y="-294"/>
      <point x="666" y="-294" type="curve" smooth="yes"/>
      <point x="651" y="-294"/>
      <point x="605" y="-290"/>
      <point x="569" y="-280" type="curve"/>
      <point x="567" y="-392" type="line"/>
      <point x="607" y="-404"/>
      <point x="668" y="-414"/>
      <point x="716" y="-414" type="curve" smooth="yes"/>
      <point x="873" y="-414"/>
      <point x="974" y="-348"/>
      <point x="974" y="-220" type="curve" smooth="yes"/>
      <point x="974" y="-126"/>
      <point x="900" y="-10"/>
    </contour>
  </outline>
</glyph>
<glyph name="ghemiddlehook-cy.sc" format="1">
  <advance width="1416"/>
  <outline>
    <contour>
      <point x="523" y="672" type="curve"/>
      <point x="523" y="1208" type="line"/>
      <point x="1038" y="1192" type="line"/>
      <point x="1092" y="950" type="line"/>
      <point x="1207" y="950" type="line"/>
      <point x="1196" y="1292" type="line"/>
      <point x="124" y="1292" type="line"/>
      <point x="124" y="1212" type="line"/>
      <point x="348" y="1190" type="line"/>
      <point x="348" y="98" type="line"/>
      <point x="115" y="80" type="line"/>
      <point x="115" y="0" type="line"/>
      <point x="779" y="0" type="line"/>
      <point x="779" y="80" type="line"/>
      <point x="523" y="98" type="line"/>
      <point x="523" y="586" type="line"/>
      <point x="634" y="624"/>
      <point x="731" y="640"/>
      <point x="844" y="640" type="curve" smooth="yes"/>
      <point x="1090" y="640"/>
      <point x="1167" y="522"/>
      <point x="1167" y="286" type="curve" smooth="yes"/>
      <point x="1167" y="-58"/>
      <point x="1077" y="-246"/>
      <point x="845" y="-246" type="curve" smooth="yes"/>
      <point x="807" y="-246"/>
      <point x="771" y="-242"/>
      <point x="754" y="-240" type="curve"/>
      <point x="755" y="-330" type="line"/>
      <point x="781" y="-340"/>
      <point x="838" y="-346"/>
      <point x="869" y="-346" type="curve" smooth="yes"/>
      <point x="1182" y="-346"/>
      <point x="1339" y="-66"/>
      <point x="1339" y="302" type="curve" smooth="yes"/>
      <point x="1339" y="560"/>
      <point x="1273" y="742"/>
      <point x="883" y="742" type="curve" smooth="yes"/>
      <point x="803" y="742"/>
      <point x="611" y="716"/>
    </contour>
  </outline>
</glyph>
<glyph name="ghestroke-cy.loclBSH.sc" format="1">
  <advance width="1313"/>
  <outline>
    <contour>
      <point x="720" y="1272" type="move" name="top"/>
    </contour>
    <contour>
      <point x="668" y="-144" type="move" name="mark0"/>
    </contour>
    <contour>
      <point x="658" y="0" type="move" name="bottom"/>
    </contour>
    <contour>
      <point x="292" y="98" type="line"/>
      <point x="119" y="80" type="line"/>
      <point x="119" y="0" type="line"/>
      <point x="795" y="0" type="line"/>
      <point x="795" y="80" type="line"/>
      <point x="462" y="98" type="line"/>
      <point x="462" y="606" type="line"/>
      <point x="887" y="600" type="line"/>
      <point x="922" y="450" type="line"/>
      <point x="1020" y="450" type="line"/>
      <point x="1020" y="846" type="line"/>
      <point x="922" y="846" type="line"/>
      <point x="887" y="702" type="line"/>
      <point x="462" y="698" type="line"/>
      <point x="462" y="1208" type="line"/>
      <point x="1060" y="1196" type="line"/>
      <point x="1117" y="1002" type="line"/>
      <point x="1233" y="1002" type="line"/>
      <point x="1211" y="1292" type="line"/>
      <point x="106" y="1292" type="line"/>
      <point x="106" y="1210" type="line"/>
      <point x="292" y="1192" type="line"/>
    </contour>
  </outline>
</glyph>
<glyph name="ghestroke-cy.sc" format="1">
  <advance width="1214"/>
  <outline>
    <contour>
      <point x="73" y="1292" type="line"/>
      <point x="73" y="1212" type="line"/>
      <point x="297" y="1190" type="line"/>
      <point x="297" y="668" type="line"/>
      <point x="94" y="668" type="line"/>
      <point x="94" y="578" type="line"/>
      <point x="297" y="578" type="line"/>
      <point x="297" y="98" type="line"/>
      <point x="64" y="80" type="line"/>
      <point x="64" y="0" type="line"/>
      <point x="854" y="0" type="line"/>
      <point x="854" y="80" type="line"/>
      <point x="472" y="98" type="line"/>
      <point x="472" y="578" type="line"/>
      <point x="890" y="578" type="line"/>
      <point x="890" y="668" type="line"/>
      <point x="472" y="668" type="line"/>
      <point x="472" y="1208" type="line"/>
      <point x="987" y="1196" type="line"/>
      <point x="1041" y="844" type="line"/>
      <point x="1156" y="844" type="line"/>
      <point x="1149" y="1292" type="line"/>
    </contour>
  </outline>
</glyph>
<glyph name="ha-cy.sc" format="1">
  <advance width="1505"/>
  <outline>
    <contour>
      <point x="752" y="-144" type="move" name="mark0"/>
    </contour>
    <contour>
      <point x="203" y="96" type="line"/>
      <point x="20" y="80" type="line"/>
      <point x="20" y="0" type="line"/>
      <point x="575" y="0" type="line"/>
      <point x="575" y="80" type="line"/>
      <point x="358" y="96" type="line"/>
      <point x="729" y="586" type="line"/>
      <point x="1114" y="98" type="line"/>
      <point x="906" y="80" type="line"/>
      <point x="906" y="0" type="line"/>
      <point x="1493" y="0" type="line"/>
      <point x="1493" y="80" type="line"/>
      <point x="1324" y="98" type="line"/>
      <point x="845" y="674" type="line"/>
      <point x="1286" y="1190" type="line"/>
      <point x="1453" y="1210" type="line"/>
      <point x="1453" y="1292" type="line"/>
      <point x="950" y="1292" type="line"/>
      <point x="950" y="1210" type="line"/>
      <point x="1140" y="1192" type="line"/>
      <point x="787" y="736" type="line"/>
      <point x="432" y="1190" type="line"/>
      <point x="649" y="1210" type="line"/>
      <point x="649" y="1292" type="line"/>
      <point x="59" y="1292" type="line"/>
      <point x="59" y="1210" type="line"/>
      <point x="221" y="1190" type="line"/>
      <point x="667" y="650" type="line"/>
    </contour>
  </outline>
</glyph>
<glyph name="haabkhasian-cy.sc" format="1">
  <advance width="1743"/>
  <outline>
    <contour>
      <point x="889" y="1208" type="curve"/>
      <point x="906" y="1300" type="line"/>
      <point x="871" y="1304"/>
      <point x="808" y="1308"/>
      <point x="769" y="1308" type="curve" smooth="yes"/>
      <point x="431" y="1308"/>
      <point x="83" y="1076"/>
      <point x="83" y="634" type="curve" smooth="yes"/>
      <point x="83" y="264"/>
      <point x="327" y="-20"/>
      <point x="780" y="-20" type="curve" smooth="yes"/>
      <point x="889" y="-20"/>
      <point x="998" y="2"/>
      <point x="1088" y="48" type="curve"/>
      <point x="1179" y="10"/>
      <point x="1295" y="-20"/>
      <point x="1436" y="-20" type="curve" smooth="yes"/>
      <point x="1540" y="-20"/>
      <point x="1639" y="2"/>
      <point x="1717" y="50" type="curve"/>
      <point x="1673" y="110" type="line"/>
      <point x="1619" y="78"/>
      <point x="1539" y="68"/>
      <point x="1467" y="68" type="curve" smooth="yes"/>
      <point x="1373" y="68"/>
      <point x="1282" y="84"/>
      <point x="1221" y="112" type="curve"/>
      <point x="1343" y="174"/>
      <point x="1553" y="348"/>
      <point x="1553" y="602" type="curve" smooth="yes"/>
      <point x="1553" y="958"/>
      <point x="1339" y="1054"/>
      <point x="1118" y="1054" type="curve" smooth="yes"/>
      <point x="897" y="1054"/>
      <point x="680" y="938"/>
      <point x="680" y="582" type="curve" smooth="yes"/>
      <point x="680" y="370"/>
      <point x="838" y="164"/>
      <point x="997" y="96" type="curve"/>
      <point x="897" y="68"/>
      <point x="842" y="68"/>
      <point x="800" y="68" type="curve" smooth="yes"/>
      <point x="524" y="68"/>
      <point x="273" y="254"/>
      <point x="273" y="636" type="curve" smooth="yes"/>
      <point x="273" y="1064"/>
      <point x="502" y="1220"/>
      <point x="762" y="1220" type="curve" smooth="yes"/>
      <point x="802" y="1220"/>
      <point x="849" y="1216"/>
    </contour>
    <contour>
      <point x="1116" y="978" type="curve" smooth="yes"/>
      <point x="1288" y="978"/>
      <point x="1366" y="846"/>
      <point x="1366" y="600" type="curve" smooth="yes"/>
      <point x="1366" y="374"/>
      <point x="1263" y="220"/>
      <point x="1133" y="156" type="curve"/>
      <point x="991" y="236"/>
      <point x="864" y="404"/>
      <point x="864" y="588" type="curve" smooth="yes"/>
      <point x="864" y="850"/>
      <point x="964" y="978"/>
    </contour>
  </outline>
</glyph>
<glyph name="hastroke-cy.sc" format="1">
  <advance width="1505"/>
  <outline>
    <contour>
      <point x="1203" y="706" type="line"/>
      <point x="333" y="706" type="line"/>
      <point x="333" y="616" type="line"/>
      <point x="1203" y="616" type="line"/>
    </contour>
    <contour>
      <point x="203" y="96" type="line"/>
      <point x="20" y="80" type="line"/>
      <point x="20" y="0" type="line"/>
      <point x="575" y="0" type="line"/>
      <point x="575" y="80" type="line"/>
      <point x="358" y="96" type="line"/>
      <point x="729" y="586" type="line"/>
      <point x="1114" y="98" type="line"/>
      <point x="906" y="80" type="line"/>
      <point x="906" y="0" type="line"/>
      <point x="1494" y="0" type="line"/>
      <point x="1494" y="80" type="line"/>
      <point x="1324" y="98" type="line"/>
      <point x="845" y="674" type="line"/>
      <point x="1286" y="1190" type="line"/>
      <point x="1453" y="1210" type="line"/>
      <point x="1453" y="1292" type="line"/>
      <point x="950" y="1292" type="line"/>
      <point x="950" y="1210" type="line"/>
      <point x="1140" y="1192" type="line"/>
      <point x="788" y="736" type="line"/>
      <point x="432" y="1190" type="line"/>
      <point x="649" y="1210" type="line"/>
      <point x="649" y="1292" type="line"/>
      <point x="59" y="1292" type="line"/>
      <point x="59" y="1210" type="line"/>
      <point x="221" y="1190" type="line"/>
      <point x="667" y="650" type="line"/>
    </contour>
  </outline>
</glyph>
<glyph name="i-cy.sc" format="1">
  <advance width="839"/>
  <outline>
    <contour>
      <point x="44" y="1292" type="move" name="topleft"/>
    </contour>
    <contour>
      <point x="421" y="1272" type="move" name="top"/>
    </contour>
    <contour>
      <point x="629" y="18" type="move" name="ogonek"/>
    </contour>
    <contour>
      <point x="426" y="-144" type="move" name="mark0"/>
    </contour>
    <contour>
      <point x="421" y="0" type="move" name="bottom"/>
    </contour>
    <contour>
      <point x="333" y="98" type="line"/>
      <point x="128" y="80" type="line"/>
      <point x="128" y="0" type="line"/>
      <point x="711" y="0" type="line"/>
      <point x="711" y="80" type="line"/>
      <point x="505" y="96" type="line"/>
      <point x="505" y="1192" type="line"/>
      <point x="711" y="1210" type="line"/>
      <point x="711" y="1292" type="line"/>
      <point x="128" y="1292" type="line"/>
      <point x="128" y="1210" type="line"/>
      <point x="333" y="1192" type="line"/>
    </contour>
  </outline>
</glyph>
<glyph name="ie-cy.sc" format="1">
  <advance width="1357"/>
  <outline>
    <contour>
      <point x="46" y="1292" type="move" name="topleft"/>
    </contour>
    <contour>
      <point x="690" y="1272" type="move" name="top"/>
    </contour>
    <contour>
      <point x="1238" y="18" type="move" name="ogonek"/>
    </contour>
    <contour>
      <point x="723" y="-144" type="move" name="mark0"/>
    </contour>
    <contour>
      <point x="690" y="0" type="move" name="bottom"/>
    </contour>
    <contour>
      <point x="270" y="96" type="line"/>
      <point x="88" y="80" type="line"/>
      <point x="88" y="0" type="line"/>
      <point x="1232" y="0" type="line"/>
      <point x="1297" y="300" type="line"/>
      <point x="1197" y="328" type="line"/>
      <point x="1090" y="108" type="line"/>
      <point x="440" y="94" type="line"/>
      <point x="440" y="620" type="line"/>
      <point x="831" y="614" type="line"/>
      <point x="857" y="466" type="line"/>
      <point x="962" y="466" type="line"/>
      <point x="962" y="858" type="line"/>
      <point x="857" y="858" type="line"/>
      <point x="831" y="714" type="line"/>
      <point x="440" y="710" type="line"/>
      <point x="440" y="1208" type="line"/>
      <point x="1009" y="1198" type="line"/>
      <point x="1065" y="1030" type="line"/>
      <point x="1166" y="1030" type="line"/>
      <point x="1135" y="1292" type="line"/>
      <point x="93" y="1292" type="line"/>
      <point x="93" y="1210" type="line"/>
      <point x="270" y="1192" type="line"/>
    </contour>
  </outline>
</glyph>
<glyph name="iebreve-cy.sc" format="1">
  <advance width="1357"/>
  <outline>
    <contour>
      <point x="419" y="1856" type="curve" smooth="yes"/>
      <point x="294" y="1856" type="line"/>
      <point x="294" y="1844"/>
      <point x="292" y="1832"/>
      <point x="292" y="1822" type="curve" smooth="yes"/>
      <point x="292" y="1616"/>
      <point x="432" y="1464"/>
      <point x="693" y="1464" type="curve" smooth="yes"/>
      <point x="957" y="1464"/>
      <point x="1089" y="1614"/>
      <point x="1089" y="1822" type="curve" smooth="yes"/>
      <point x="1089" y="1832"/>
      <point x="1087" y="1844"/>
      <point x="1087" y="1856" type="curve"/>
      <point x="962" y="1856" type="line" smooth="yes"/>
      <point x="933" y="1856"/>
      <point x="929" y="1822"/>
      <point x="929" y="1788" type="curve" smooth="yes"/>
      <point x="929" y="1682"/>
      <point x="876" y="1560"/>
      <point x="695" y="1560" type="curve" smooth="yes"/>
      <point x="509" y="1560"/>
      <point x="452" y="1682"/>
      <point x="452" y="1788" type="curve" smooth="yes"/>
      <point x="452" y="1822"/>
      <point x="448" y="1856"/>
    </contour>
    <contour>
      <point x="270" y="96" type="line"/>
      <point x="88" y="80" type="line"/>
      <point x="88" y="0" type="line"/>
      <point x="1232" y="0" type="line"/>
      <point x="1297" y="300" type="line"/>
      <point x="1197" y="328" type="line"/>
      <point x="1090" y="108" type="line"/>
      <point x="440" y="94" type="line"/>
      <point x="440" y="620" type="line"/>
      <point x="831" y="614" type="line"/>
      <point x="857" y="466" type="line"/>
      <point x="962" y="466" type="line"/>
      <point x="962" y="858" type="line"/>
      <point x="857" y="858" type="line"/>
      <point x="831" y="714" type="line"/>
      <point x="440" y="710" type="line"/>
      <point x="440" y="1208" type="line"/>
      <point x="1009" y="1198" type="line"/>
      <point x="1065" y="1030" type="line"/>
      <point x="1166" y="1030" type="line"/>
      <point x="1135" y="1292" type="line"/>
      <point x="93" y="1292" type="line"/>
      <point x="93" y="1210" type="line"/>
      <point x="270" y="1192" type="line"/>
    </contour>
  </outline>
</glyph>
<glyph name="iegrave-cy.sc" format="1">
  <advance width="1357"/>
  <outline>
    <contour>
      <point x="754" y="1480" type="curve"/>
      <point x="756" y="1480" type="line"/>
      <point x="816" y="1534" type="line"/>
      <point x="476" y="1918" type="line"/>
      <point x="341" y="1810" type="line"/>
      <point x="395" y="1732"/>
      <point x="678" y="1510"/>
    </contour>
    <contour>
      <point x="270" y="96" type="line"/>
      <point x="88" y="80" type="line"/>
      <point x="88" y="0" type="line"/>
      <point x="1232" y="0" type="line"/>
      <point x="1297" y="300" type="line"/>
      <point x="1197" y="328" type="line"/>
      <point x="1090" y="108" type="line"/>
      <point x="440" y="94" type="line"/>
      <point x="440" y="620" type="line"/>
      <point x="831" y="614" type="line"/>
      <point x="857" y="466" type="line"/>
      <point x="962" y="466" type="line"/>
      <point x="962" y="858" type="line"/>
      <point x="857" y="858" type="line"/>
      <point x="831" y="714" type="line"/>
      <point x="440" y="710" type="line"/>
      <point x="440" y="1208" type="line"/>
      <point x="1009" y="1198" type="line"/>
      <point x="1065" y="1030" type="line"/>
      <point x="1166" y="1030" type="line"/>
      <point x="1135" y="1292" type="line"/>
      <point x="93" y="1292" type="line"/>
      <point x="93" y="1210" type="line"/>
      <point x="270" y="1192" type="line"/>
    </contour>
  </outline>
</glyph>
<glyph name="iishort-cy.loclBGR.sc" format="1">
  <advance width="1782"/>
  <outline>
    <contour>
      <point x="641" y="1856" type="curve" smooth="yes"/>
      <point x="516" y="1856" type="line"/>
      <point x="516" y="1844"/>
      <point x="514" y="1832"/>
      <point x="514" y="1822" type="curve" smooth="yes"/>
      <point x="514" y="1616"/>
      <point x="654" y="1464"/>
      <point x="915" y="1464" type="curve" smooth="yes"/>
      <point x="1179" y="1464"/>
      <point x="1311" y="1614"/>
      <point x="1311" y="1822" type="curve" smooth="yes"/>
      <point x="1311" y="1832"/>
      <point x="1309" y="1844"/>
      <point x="1309" y="1856" type="curve"/>
      <point x="1184" y="1856" type="line" smooth="yes"/>
      <point x="1155" y="1856"/>
      <point x="1151" y="1822"/>
      <point x="1151" y="1788" type="curve" smooth="yes"/>
      <point x="1151" y="1682"/>
      <point x="1098" y="1560"/>
      <point x="917" y="1560" type="curve" smooth="yes"/>
      <point x="731" y="1560"/>
      <point x="674" y="1682"/>
      <point x="674" y="1788" type="curve" smooth="yes"/>
      <point x="674" y="1822"/>
      <point x="670" y="1856"/>
    </contour>
    <contour>
      <point x="128" y="1292" type="line"/>
      <point x="128" y="1210" type="line"/>
      <point x="301" y="1192" type="line"/>
      <point x="301" y="96" type="line"/>
      <point x="119" y="80" type="line"/>
      <point x="119" y="0" type="line"/>
      <point x="671" y="0" type="line"/>
      <point x="671" y="80" type="line"/>
      <point x="467" y="98" type="line"/>
      <point x="467" y="162" type="line"/>
      <point x="1140" y="802" type="line"/>
      <point x="1316" y="1002" type="line"/>
      <point x="1316" y="98" type="line"/>
      <point x="1122" y="80" type="line"/>
      <point x="1122" y="0" type="line"/>
      <point x="1671" y="0" type="line"/>
      <point x="1671" y="80" type="line"/>
      <point x="1484" y="98" type="line"/>
      <point x="1484" y="1192" type="line"/>
      <point x="1657" y="1210" type="line"/>
      <point x="1657" y="1292" type="line"/>
      <point x="1122" y="1292" type="line"/>
      <point x="1122" y="1210" type="line"/>
      <point x="1316" y="1192" type="line"/>
      <point x="1316" y="1142" type="line"/>
      <point x="663" y="512" type="line"/>
      <point x="467" y="300" type="line"/>
      <point x="467" y="1192" type="line"/>
      <point x="683" y="1212" type="line"/>
      <point x="683" y="1292" type="line"/>
    </contour>
  </outline>
</glyph>
<glyph name="iishorttail-cy.sc" format="1">
  <advance width="1784"/>
  <outline>
    <contour>
      <point x="1488" y="0" type="move" name="bottomright"/>
    </contour>
    <contour>
      <point x="1702" y="0" type="curve"/>
      <point x="1702" y="96" type="line"/>
      <point x="1454" y="96" type="line"/>
      <point x="1455" y="0" type="line"/>
      <point x="1547" y="0" type="line"/>
      <point x="1537" y="-46"/>
      <point x="1461" y="-298"/>
      <point x="1457" y="-320" type="curve"/>
      <point x="1580" y="-320" type="line"/>
      <point x="1587" y="-300"/>
      <point x="1701" y="-12"/>
    </contour>
    <contour>
      <point x="642" y="1856" type="curve" smooth="yes"/>
      <point x="517" y="1856" type="line"/>
      <point x="517" y="1844"/>
      <point x="514" y="1832"/>
      <point x="514" y="1822" type="curve" smooth="yes"/>
      <point x="514" y="1616"/>
      <point x="655" y="1464"/>
      <point x="915" y="1464" type="curve" smooth="yes"/>
      <point x="1180" y="1464"/>
      <point x="1312" y="1614"/>
      <point x="1312" y="1822" type="curve" smooth="yes"/>
      <point x="1312" y="1832"/>
      <point x="1310" y="1844"/>
      <point x="1310" y="1856" type="curve"/>
      <point x="1184" y="1856" type="line" smooth="yes"/>
      <point x="1156" y="1856"/>
      <point x="1152" y="1822"/>
      <point x="1152" y="1788" type="curve" smooth="yes"/>
      <point x="1152" y="1682"/>
      <point x="1099" y="1560"/>
      <point x="918" y="1560" type="curve" smooth="yes"/>
      <point x="732" y="1560"/>
      <point x="675" y="1682"/>
      <point x="675" y="1788" type="curve" smooth="yes"/>
      <point x="675" y="1822"/>
      <point x="670" y="1856"/>
    </contour>
    <contour>
      <point x="128" y="1292" type="line"/>
      <point x="128" y="1210" type="line"/>
      <point x="301" y="1192" type="line"/>
      <point x="301" y="96" type="line"/>
      <point x="119" y="80" type="line"/>
      <point x="119" y="0" type="line"/>
      <point x="671" y="0" type="line"/>
      <point x="671" y="80" type="line"/>
      <point x="467" y="98" type="line"/>
      <point x="467" y="162" type="line"/>
      <point x="1140" y="802" type="line"/>
      <point x="1316" y="1002" type="line"/>
      <point x="1316" y="98" type="line"/>
      <point x="1122" y="80" type="line"/>
      <point x="1122" y="0" type="line"/>
      <point x="1671" y="0" type="line"/>
      <point x="1671" y="80" type="line"/>
      <point x="1484" y="98" type="line"/>
      <point x="1484" y="1192" type="line"/>
      <point x="1657" y="1210" type="line"/>
      <point x="1657" y="1292" type="line"/>
      <point x="1122" y="1292" type="line"/>
      <point x="1122" y="1210" type="line"/>
      <point x="1316" y="1192" type="line"/>
      <point x="1316" y="1142" type="line"/>
      <point x="663" y="512" type="line"/>
      <point x="467" y="300" type="line"/>
      <point x="467" y="1192" type="line"/>
      <point x="683" y="1212" type="line"/>
      <point x="683" y="1292" type="line"/>
    </contour>
  </outline>
</glyph>
<glyph name="io-cy.sc" format="1">
  <advance width="1357"/>
  <outline>
    <contour>
      <point x="915" y="1486" type="curve"/>
      <point x="1004" y="1486"/>
      <point x="1048" y="1546"/>
      <point x="1048" y="1616" type="curve" smooth="yes"/>
      <point x="1048" y="1674"/>
      <point x="1006" y="1732"/>
      <point x="934" y="1732" type="curve" smooth="yes"/>
      <point x="851" y="1732"/>
      <point x="808" y="1666"/>
      <point x="808" y="1600" type="curve" smooth="yes"/>
      <point x="808" y="1536"/>
      <point x="852" y="1486"/>
    </contour>
    <contour>
      <point x="442" y="1486" type="curve" smooth="yes"/>
      <point x="528" y="1486"/>
      <point x="572" y="1546"/>
      <point x="572" y="1616" type="curve" smooth="yes"/>
      <point x="572" y="1674"/>
      <point x="531" y="1732"/>
      <point x="459" y="1732" type="curve"/>
      <point x="374" y="1732"/>
      <point x="333" y="1666"/>
      <point x="333" y="1600" type="curve" smooth="yes"/>
      <point x="333" y="1536"/>
      <point x="374" y="1486"/>
    </contour>
    <contour>
      <point x="270" y="96" type="line"/>
      <point x="88" y="80" type="line"/>
      <point x="88" y="0" type="line"/>
      <point x="1232" y="0" type="line"/>
      <point x="1297" y="300" type="line"/>
      <point x="1197" y="328" type="line"/>
      <point x="1090" y="108" type="line"/>
      <point x="440" y="94" type="line"/>
      <point x="440" y="620" type="line"/>
      <point x="831" y="614" type="line"/>
      <point x="857" y="466" type="line"/>
      <point x="962" y="466" type="line"/>
      <point x="962" y="858" type="line"/>
      <point x="857" y="858" type="line"/>
      <point x="831" y="714" type="line"/>
      <point x="440" y="710" type="line"/>
      <point x="440" y="1208" type="line"/>
      <point x="1009" y="1198" type="line"/>
      <point x="1065" y="1030" type="line"/>
      <point x="1166" y="1030" type="line"/>
      <point x="1135" y="1292" type="line"/>
      <point x="93" y="1292" type="line"/>
      <point x="93" y="1210" type="line"/>
      <point x="270" y="1192" type="line"/>
    </contour>
  </outline>
</glyph>
<glyph name="iu-cy.sc" format="1">
  <advance width="2245"/>
  <outline>
    <contour>
      <point x="835" y="714" type="curve"/>
      <point x="464" y="714" type="line"/>
      <point x="464" y="1192" type="line"/>
      <point x="643" y="1210" type="line"/>
      <point x="643" y="1292" type="line"/>
      <point x="126" y="1292" type="line"/>
      <point x="126" y="1210" type="line"/>
      <point x="299" y="1192" type="line"/>
      <point x="299" y="98" type="line"/>
      <point x="119" y="80" type="line"/>
      <point x="119" y="0" type="line"/>
      <point x="652" y="0" type="line"/>
      <point x="652" y="80" type="line"/>
      <point x="466" y="98" type="line"/>
      <point x="466" y="618" type="line"/>
      <point x="828" y="618" type="line"/>
      <point x="824" y="238"/>
      <point x="1075" y="-16"/>
      <point x="1490" y="-16" type="curve" smooth="yes"/>
      <point x="1851" y="-16"/>
      <point x="2151" y="236"/>
      <point x="2161" y="660" type="curve" smooth="yes"/>
      <point x="2170" y="1040"/>
      <point x="1923" y="1308"/>
      <point x="1522" y="1308" type="curve" smooth="yes"/>
      <point x="1191" y="1308"/>
      <point x="879" y="1090"/>
    </contour>
    <contour>
      <point x="1508" y="1216" type="curve" smooth="yes"/>
      <point x="1810" y="1216"/>
      <point x="1977" y="984"/>
      <point x="1977" y="660" type="curve" smooth="yes"/>
      <point x="1977" y="268"/>
      <point x="1791" y="78"/>
      <point x="1503" y="78" type="curve" smooth="yes"/>
      <point x="1185" y="78"/>
      <point x="1012" y="314"/>
      <point x="1012" y="634" type="curve" smooth="yes"/>
      <point x="1012" y="1038"/>
      <point x="1227" y="1216"/>
    </contour>
  </outline>
</glyph>
<glyph name="je-cy.sc" format="1">
  <advance width="800"/>
  <outline>
    <contour>
      <point x="407" y="1272" type="move" name="top"/>
    </contour>
    <contour>
      <point x="308" y="-144" type="move" name="mark0"/>
    </contour>
    <contour>
      <point x="2" y="-238" type="curve"/>
      <point x="48" y="-306" type="line"/>
      <point x="237" y="-276"/>
      <point x="431" y="-154"/>
      <point x="476" y="30" type="curve" smooth="yes"/>
      <point x="502" y="138"/>
      <point x="497" y="264"/>
      <point x="497" y="478" type="curve" smooth="yes"/>
      <point x="497" y="1190" type="line"/>
      <point x="702" y="1210" type="line"/>
      <point x="702" y="1292" type="line"/>
      <point x="114" y="1292" type="line"/>
      <point x="114" y="1210" type="line"/>
      <point x="325" y="1190" type="line"/>
      <point x="325" y="424" type="line" smooth="yes"/>
      <point x="325" y="200"/>
      <point x="326" y="92"/>
      <point x="283" y="-16" type="curve" smooth="yes"/>
      <point x="240" y="-132"/>
      <point x="127" y="-210"/>
    </contour>
  </outline>
</glyph>
<glyph name="kadescender-cy.sc" format="1">
  <advance width="1466"/>
  <outline>
    <contour>
      <point x="770" y="672" type="curve"/>
      <point x="1255" y="1192" type="line"/>
      <point x="1415" y="1210" type="line"/>
      <point x="1415" y="1292" type="line"/>
      <point x="923" y="1292" type="line"/>
      <point x="923" y="1210" type="line"/>
      <point x="1111" y="1192" type="line"/>
      <point x="653" y="680" type="line"/>
      <point x="455" y="680" type="line"/>
      <point x="455" y="1192" type="line"/>
      <point x="635" y="1210" type="line"/>
      <point x="635" y="1292" type="line"/>
      <point x="115" y="1292" type="line"/>
      <point x="115" y="1210" type="line"/>
      <point x="290" y="1192" type="line"/>
      <point x="290" y="98" type="line"/>
      <point x="115" y="82" type="line"/>
      <point x="115" y="0" type="line"/>
      <point x="640" y="0" type="line"/>
      <point x="640" y="80" type="line"/>
      <point x="455" y="98" type="line"/>
      <point x="455" y="600" type="line"/>
      <point x="612" y="600" type="line" smooth="yes"/>
      <point x="782" y="600"/>
      <point x="1084" y="0"/>
      <point x="1227" y="0" type="curve" smooth="yes"/>
      <point x="1286" y="0" type="line"/>
      <point x="1289" y="-16"/>
      <point x="1302" y="-288"/>
      <point x="1302" y="-320" type="curve"/>
      <point x="1416" y="-320" type="line"/>
      <point x="1434" y="-208"/>
      <point x="1455" y="-22"/>
      <point x="1471" y="98" type="curve"/>
      <point x="1357" y="98" type="line"/>
      <point x="1237" y="132"/>
      <point x="961" y="604"/>
    </contour>
  </outline>
</glyph>
<glyph name="kahook-cy.sc" format="1">
  <advance width="1476"/>
  <outline>
    <contour>
      <point x="462" y="678" type="curve"/>
      <point x="462" y="1192" type="line"/>
      <point x="642" y="1210" type="line"/>
      <point x="642" y="1292" type="line"/>
      <point x="121" y="1292" type="line"/>
      <point x="121" y="1210" type="line"/>
      <point x="296" y="1192" type="line"/>
      <point x="296" y="98" type="line"/>
      <point x="121" y="82" type="line"/>
      <point x="121" y="0" type="line"/>
      <point x="646" y="0" type="line"/>
      <point x="646" y="80" type="line"/>
      <point x="462" y="98" type="line"/>
      <point x="462" y="588" type="line"/>
      <point x="575" y="612"/>
      <point x="645" y="634"/>
      <point x="785" y="634" type="curve" smooth="yes"/>
      <point x="1031" y="634"/>
      <point x="1134" y="522"/>
      <point x="1134" y="286" type="curve" smooth="yes"/>
      <point x="1134" y="-78"/>
      <point x="1014" y="-236"/>
      <point x="778" y="-236" type="curve" smooth="yes"/>
      <point x="743" y="-236"/>
      <point x="708" y="-234"/>
      <point x="693" y="-230" type="curve"/>
      <point x="692" y="-330" type="line"/>
      <point x="716" y="-340"/>
      <point x="782" y="-344"/>
      <point x="811" y="-344" type="curve" smooth="yes"/>
      <point x="1126" y="-344"/>
      <point x="1306" y="-74"/>
      <point x="1306" y="304" type="curve" smooth="yes"/>
      <point x="1306" y="560"/>
      <point x="1212" y="732"/>
      <point x="852" y="740" type="curve"/>
      <point x="1261" y="1192" type="line"/>
      <point x="1423" y="1210" type="line"/>
      <point x="1423" y="1292" type="line"/>
      <point x="935" y="1292" type="line"/>
      <point x="935" y="1210" type="line"/>
      <point x="1117" y="1192" type="line"/>
      <point x="706" y="730" type="line"/>
      <point x="620" y="718"/>
      <point x="528" y="696"/>
    </contour>
  </outline>
</glyph>
<glyph name="kastroke-cy.sc" format="1">
  <advance width="1466"/>
  <outline>
    <contour>
      <point x="781" y="-144" type="move" name="mark0"/>
    </contour>
    <contour>
      <point x="769" y="672" type="curve"/>
      <point x="1255" y="1192" type="line"/>
      <point x="1414" y="1210" type="line"/>
      <point x="1414" y="1292" type="line"/>
      <point x="923" y="1292" type="line"/>
      <point x="923" y="1210" type="line"/>
      <point x="1110" y="1192" type="line"/>
      <point x="652" y="680" type="line"/>
      <point x="455" y="680" type="line"/>
      <point x="455" y="910" type="line"/>
      <point x="640" y="910" type="line"/>
      <point x="640" y="1000" type="line"/>
      <point x="455" y="1000" type="line"/>
      <point x="455" y="1192" type="line"/>
      <point x="634" y="1210" type="line"/>
      <point x="634" y="1292" type="line"/>
      <point x="114" y="1292" type="line"/>
      <point x="114" y="1210" type="line"/>
      <point x="289" y="1192" type="line"/>
      <point x="289" y="1000" type="line"/>
      <point x="119" y="1000" type="line"/>
      <point x="119" y="910" type="line"/>
      <point x="289" y="910" type="line"/>
      <point x="289" y="98" type="line"/>
      <point x="114" y="82" type="line"/>
      <point x="114" y="0" type="line"/>
      <point x="639" y="0" type="line"/>
      <point x="639" y="80" type="line"/>
      <point x="455" y="98" type="line"/>
      <point x="455" y="600" type="line"/>
      <point x="611" y="600" type="line" smooth="yes"/>
      <point x="782" y="600"/>
      <point x="1083" y="0"/>
      <point x="1227" y="0" type="curve" smooth="yes"/>
      <point x="1440" y="0" type="line"/>
      <point x="1440" y="80" type="line"/>
      <point x="1358" y="98" type="line" smooth="yes"/>
      <point x="1241" y="124"/>
      <point x="961" y="604"/>
    </contour>
  </outline>
</glyph>
<glyph name="kaverticalstroke-cy.sc" format="1">
  <advance width="1552"/>
  <outline>
    <contour>
      <point x="942" y="678" type="curve"/>
      <point x="1345" y="1192" type="line"/>
      <point x="1500" y="1210" type="line"/>
      <point x="1500" y="1292" type="line"/>
      <point x="1014" y="1292" type="line"/>
      <point x="1014" y="1210" type="line"/>
      <point x="1200" y="1190" type="line"/>
      <point x="819" y="694" type="line"/>
      <point x="737" y="694" type="line"/>
      <point x="737" y="964" type="line"/>
      <point x="631" y="964" type="line"/>
      <point x="631" y="694" type="line"/>
      <point x="462" y="694" type="line"/>
      <point x="462" y="1192" type="line"/>
      <point x="642" y="1210" type="line"/>
      <point x="642" y="1292" type="line"/>
      <point x="121" y="1292" type="line"/>
      <point x="121" y="1210" type="line"/>
      <point x="296" y="1192" type="line"/>
      <point x="296" y="98" type="line"/>
      <point x="121" y="82" type="line"/>
      <point x="121" y="0" type="line"/>
      <point x="646" y="0" type="line"/>
      <point x="646" y="80" type="line"/>
      <point x="462" y="98" type="line"/>
      <point x="462" y="602" type="line"/>
      <point x="631" y="602" type="line"/>
      <point x="631" y="314" type="line"/>
      <point x="737" y="314" type="line"/>
      <point x="737" y="596" type="line"/>
      <point x="780" y="596" type="line" smooth="yes"/>
      <point x="952" y="596"/>
      <point x="1201" y="0"/>
      <point x="1346" y="0" type="curve" smooth="yes"/>
      <point x="1558" y="0" type="line"/>
      <point x="1558" y="80" type="line"/>
      <point x="1476" y="100" type="line" smooth="yes"/>
      <point x="1366" y="128"/>
      <point x="1126" y="586"/>
    </contour>
  </outline>
</glyph>
<glyph name="komidje-cy.sc" format="1">
  <advance width="1907"/>
  <outline>
    <contour>
      <point x="1704" y="290" type="curve" smooth="yes"/>
      <point x="1704" y="602" type="line"/>
      <point x="1859" y="622" type="line"/>
      <point x="1859" y="710" type="line"/>
      <point x="1364" y="710" type="line"/>
      <point x="1364" y="622" type="line"/>
      <point x="1534" y="602" type="line"/>
      <point x="1534" y="318" type="line" smooth="yes"/>
      <point x="1534" y="158"/>
      <point x="1470" y="78"/>
      <point x="1274" y="78" type="curve" smooth="yes"/>
      <point x="1101" y="78"/>
      <point x="1050" y="154"/>
      <point x="1050" y="322" type="curve" smooth="yes"/>
      <point x="1050" y="1198" type="line"/>
      <point x="1225" y="1222" type="line"/>
      <point x="1225" y="1292" type="line"/>
      <point x="669" y="1292" type="line"/>
      <point x="669" y="1222" type="line"/>
      <point x="882" y="1198" type="line"/>
      <point x="882" y="770" type="line"/>
      <point x="810" y="776"/>
      <point x="707" y="786"/>
      <point x="629" y="786" type="curve" smooth="yes"/>
      <point x="301" y="786"/>
      <point x="72" y="640"/>
      <point x="72" y="368" type="curve" smooth="yes"/>
      <point x="72" y="128"/>
      <point x="260" y="-14"/>
      <point x="602" y="-14" type="curve" smooth="yes"/>
      <point x="713" y="-14"/>
      <point x="857" y="0"/>
      <point x="989" y="58" type="curve"/>
      <point x="1053" y="12"/>
      <point x="1144" y="-14"/>
      <point x="1271" y="-14" type="curve" smooth="yes"/>
      <point x="1550" y="-14"/>
      <point x="1704" y="100"/>
    </contour>
    <contour>
      <point x="882" y="682" type="curve"/>
      <point x="882" y="298" type="line" smooth="yes"/>
      <point x="882" y="256"/>
      <point x="886" y="202"/>
      <point x="911" y="156" type="curve"/>
      <point x="843" y="106"/>
      <point x="721" y="84"/>
      <point x="648" y="84" type="curve" smooth="yes"/>
      <point x="400" y="84"/>
      <point x="250" y="186"/>
      <point x="250" y="376" type="curve" smooth="yes"/>
      <point x="250" y="592"/>
      <point x="400" y="696"/>
      <point x="646" y="696" type="curve" smooth="yes"/>
      <point x="761" y="696"/>
      <point x="817" y="690"/>
    </contour>
  </outline>
</glyph>
<glyph name="kominje-cy.sc" format="1">
  <advance width="2243"/>
  <outline>
    <contour>
      <point x="1383" y="322" type="curve" smooth="yes"/>
      <point x="1383" y="1192" type="line"/>
      <point x="1579" y="1214" type="line"/>
      <point x="1579" y="1292" type="line"/>
      <point x="1019" y="1292" type="line"/>
      <point x="1019" y="1214" type="line"/>
      <point x="1213" y="1192" type="line"/>
      <point x="1213" y="714" type="line"/>
      <point x="466" y="714" type="line"/>
      <point x="466" y="1192" type="line"/>
      <point x="652" y="1210" type="line"/>
      <point x="652" y="1292" type="line"/>
      <point x="126" y="1292" type="line"/>
      <point x="126" y="1210" type="line"/>
      <point x="299" y="1192" type="line"/>
      <point x="299" y="96" type="line"/>
      <point x="119" y="80" type="line"/>
      <point x="119" y="0" type="line"/>
      <point x="653" y="0" type="line"/>
      <point x="653" y="80" type="line"/>
      <point x="466" y="96" type="line"/>
      <point x="466" y="612" type="line"/>
      <point x="1213" y="612" type="line"/>
      <point x="1215" y="298" type="line" smooth="yes"/>
      <point x="1218" y="94"/>
      <point x="1352" y="-14"/>
      <point x="1605" y="-14" type="curve" smooth="yes"/>
      <point x="1886" y="-14"/>
      <point x="2038" y="100"/>
      <point x="2038" y="290" type="curve" smooth="yes"/>
      <point x="2038" y="602" type="line"/>
      <point x="2195" y="622" type="line"/>
      <point x="2195" y="712" type="line"/>
      <point x="1700" y="712" type="line"/>
      <point x="1700" y="622" type="line"/>
      <point x="1868" y="602" type="line"/>
      <point x="1868" y="318" type="line" smooth="yes"/>
      <point x="1868" y="158"/>
      <point x="1804" y="78"/>
      <point x="1611" y="78" type="curve" smooth="yes"/>
      <point x="1438" y="78"/>
      <point x="1383" y="154"/>
    </contour>
  </outline>
</glyph>
<glyph name="komitje-cy.sc" format="1">
  <advance width="1684"/>
  <outline>
    <contour>
      <point x="764" y="-144" type="move" name="mark0"/>
    </contour>
    <contour>
      <point x="829" y="322" type="curve" smooth="yes"/>
      <point x="829" y="1206" type="line"/>
      <point x="1241" y="1198" type="line"/>
      <point x="1300" y="882" type="line"/>
      <point x="1413" y="882" type="line"/>
      <point x="1389" y="1292" type="line"/>
      <point x="112" y="1292" type="line"/>
      <point x="77" y="882" type="line"/>
      <point x="191" y="882" type="line"/>
      <point x="259" y="1198" type="line"/>
      <point x="657" y="1206" type="line"/>
      <point x="657" y="298" type="line" smooth="yes"/>
      <point x="657" y="102"/>
      <point x="789" y="-14"/>
      <point x="1050" y="-14" type="curve" smooth="yes"/>
      <point x="1324" y="-14"/>
      <point x="1484" y="98"/>
      <point x="1484" y="290" type="curve" smooth="yes"/>
      <point x="1484" y="602" type="line"/>
      <point x="1636" y="622" type="line"/>
      <point x="1636" y="712" type="line"/>
      <point x="1143" y="712" type="line"/>
      <point x="1143" y="622" type="line"/>
      <point x="1313" y="602" type="line"/>
      <point x="1313" y="318" type="line" smooth="yes"/>
      <point x="1313" y="160"/>
      <point x="1249" y="78"/>
      <point x="1054" y="78" type="curve" smooth="yes"/>
      <point x="877" y="78"/>
      <point x="829" y="158"/>
    </contour>
  </outline>
</glyph>
<glyph name="komizje-cy.sc" format="1">
  <advance width="1998"/>
  <outline>
    <contour>
      <point x="1793" y="290" type="curve" smooth="yes"/>
      <point x="1793" y="602" type="line"/>
      <point x="1950" y="622" type="line"/>
      <point x="1950" y="710" type="line"/>
      <point x="1457" y="710" type="line"/>
      <point x="1457" y="622" type="line"/>
      <point x="1625" y="602" type="line"/>
      <point x="1625" y="318" type="line" smooth="yes"/>
      <point x="1625" y="160"/>
      <point x="1563" y="78"/>
      <point x="1365" y="78" type="curve" smooth="yes"/>
      <point x="1211" y="78"/>
      <point x="1139" y="136"/>
      <point x="1139" y="322" type="curve" smooth="yes"/>
      <point x="1139" y="534"/>
      <point x="1004" y="682"/>
      <point x="736" y="682" type="curve"/>
      <point x="905" y="708"/>
      <point x="1078" y="810"/>
      <point x="1078" y="1014" type="curve" smooth="yes"/>
      <point x="1078" y="1214"/>
      <point x="899" y="1306"/>
      <point x="570" y="1306" type="curve" smooth="yes"/>
      <point x="412" y="1306"/>
      <point x="254" y="1256"/>
      <point x="166" y="1250" type="curve"/>
      <point x="185" y="988" type="line"/>
      <point x="294" y="988" type="line"/>
      <point x="328" y="1146" type="line"/>
      <point x="365" y="1188"/>
      <point x="467" y="1216"/>
      <point x="596" y="1216" type="curve" smooth="yes"/>
      <point x="784" y="1216"/>
      <point x="895" y="1154"/>
      <point x="898" y="992" type="curve"/>
      <point x="898" y="802"/>
      <point x="721" y="712"/>
      <point x="546" y="712" type="curve" smooth="yes"/>
      <point x="418" y="712" type="line"/>
      <point x="418" y="620" type="line"/>
      <point x="571" y="620" type="line" smooth="yes"/>
      <point x="870" y="620"/>
      <point x="971" y="484"/>
      <point x="971" y="298" type="curve" smooth="yes"/>
      <point x="971" y="102"/>
      <point x="1097" y="-14"/>
      <point x="1361" y="-14" type="curve" smooth="yes"/>
      <point x="1638" y="-14"/>
      <point x="1793" y="98"/>
    </contour>
  </outline>
</glyph>
<glyph name="o-cy.sc" format="1">
  <advance width="1530"/>
  <outline>
    <contour>
      <point x="46" y="1292" type="move" name="topleft"/>
    </contour>
    <contour>
      <point x="765" y="648" type="move" name="center"/>
    </contour>
    <contour>
      <point x="765" y="0" type="move" name="bottom"/>
    </contour>
    <contour>
      <point x="765" y="1272" type="move" name="top"/>
    </contour>
    <contour>
      <point x="1135" y="1292" type="move" name="topright"/>
    </contour>
    <contour>
      <point x="754" y="-144" type="move" name="mark0"/>
    </contour>
    <contour>
      <point x="1371" y="18" type="move" name="ogonek"/>
    </contour>
    <contour>
      <point x="749" y="-20" type="curve" smooth="yes"/>
      <point x="1137" y="-14"/>
      <point x="1447" y="252"/>
      <point x="1447" y="660" type="curve" smooth="yes"/>
      <point x="1447" y="1050"/>
      <point x="1212" y="1308"/>
      <point x="785" y="1308" type="curve" smooth="yes"/>
      <point x="394" y="1308"/>
      <point x="83" y="1048"/>
      <point x="83" y="638" type="curve" smooth="yes"/>
      <point x="83" y="248"/>
      <point x="322" y="-26"/>
    </contour>
    <contour>
      <point x="767" y="1220" type="curve" smooth="yes"/>
      <point x="1078" y="1220"/>
      <point x="1254" y="1000"/>
      <point x="1254" y="660" type="curve" smooth="yes"/>
      <point x="1254" y="268"/>
      <point x="1052" y="68"/>
      <point x="760" y="68" type="curve" smooth="yes"/>
      <point x="449" y="68"/>
      <point x="272" y="298"/>
      <point x="272" y="638" type="curve" smooth="yes"/>
      <point x="272" y="1030"/>
      <point x="475" y="1220"/>
    </contour>
  </outline>
</glyph>
<glyph name="obarred-cy.sc" format="1">
  <advance width="1498"/>
  <outline>
    <contour>
      <point x="771" y="1272" type="move" name="top"/>
    </contour>
    <contour>
      <point x="738" y="-144" type="move" name="mark0"/>
    </contour>
    <contour>
      <point x="769" y="1308" type="curve" smooth="yes"/>
      <point x="378" y="1308"/>
      <point x="67" y="1048"/>
      <point x="67" y="638" type="curve" smooth="yes"/>
      <point x="67" y="248"/>
      <point x="306" y="-26"/>
      <point x="733" y="-20" type="curve" smooth="yes"/>
      <point x="1121" y="-14"/>
      <point x="1431" y="252"/>
      <point x="1431" y="660" type="curve" smooth="yes"/>
      <point x="1431" y="1050"/>
      <point x="1195" y="1308"/>
    </contour>
    <contour>
      <point x="255" y="606" type="curve"/>
      <point x="1237" y="606" type="line"/>
      <point x="1220" y="250"/>
      <point x="1023" y="68"/>
      <point x="744" y="68" type="curve" smooth="yes"/>
      <point x="442" y="68"/>
      <point x="267" y="284"/>
    </contour>
    <contour>
      <point x="1237" y="694" type="curve"/>
      <point x="255" y="694" type="line"/>
      <point x="273" y="1038"/>
      <point x="463" y="1220"/>
      <point x="751" y="1220" type="curve" smooth="yes"/>
      <point x="1053" y="1220"/>
      <point x="1224" y="1014"/>
    </contour>
  </outline>
</glyph>
<glyph name="obarreddieresis-cy.sc" format="1">
  <advance width="1498"/>
  <outline>
    <contour>
      <point x="996" y="1486" type="curve"/>
      <point x="1085" y="1486"/>
      <point x="1128" y="1546"/>
      <point x="1128" y="1616" type="curve" smooth="yes"/>
      <point x="1128" y="1674"/>
      <point x="1087" y="1732"/>
      <point x="1015" y="1732" type="curve" smooth="yes"/>
      <point x="932" y="1732"/>
      <point x="889" y="1666"/>
      <point x="889" y="1600" type="curve" smooth="yes"/>
      <point x="889" y="1536"/>
      <point x="932" y="1486"/>
    </contour>
    <contour>
      <point x="523" y="1486" type="curve" smooth="yes"/>
      <point x="609" y="1486"/>
      <point x="653" y="1546"/>
      <point x="653" y="1616" type="curve" smooth="yes"/>
      <point x="653" y="1674"/>
      <point x="612" y="1732"/>
      <point x="540" y="1732" type="curve"/>
      <point x="455" y="1732"/>
      <point x="414" y="1666"/>
      <point x="414" y="1600" type="curve" smooth="yes"/>
      <point x="414" y="1536"/>
      <point x="455" y="1486"/>
    </contour>
    <contour>
      <point x="769" y="1308" type="curve" smooth="yes"/>
      <point x="378" y="1308"/>
      <point x="67" y="1048"/>
      <point x="67" y="638" type="curve" smooth="yes"/>
      <point x="67" y="248"/>
      <point x="306" y="-26"/>
      <point x="733" y="-20" type="curve" smooth="yes"/>
      <point x="1121" y="-14"/>
      <point x="1431" y="252"/>
      <point x="1431" y="660" type="curve" smooth="yes"/>
      <point x="1431" y="1050"/>
      <point x="1195" y="1308"/>
    </contour>
    <contour>
      <point x="255" y="606" type="curve"/>
      <point x="1237" y="606" type="line"/>
      <point x="1220" y="250"/>
      <point x="1023" y="68"/>
      <point x="744" y="68" type="curve" smooth="yes"/>
      <point x="442" y="68"/>
      <point x="267" y="284"/>
    </contour>
    <contour>
      <point x="1237" y="694" type="curve"/>
      <point x="255" y="694" type="line"/>
      <point x="273" y="1038"/>
      <point x="463" y="1220"/>
      <point x="751" y="1220" type="curve" smooth="yes"/>
      <point x="1053" y="1220"/>
      <point x="1224" y="1014"/>
    </contour>
  </outline>
</glyph>
<glyph name="odieresis-cy.sc" format="1">
  <advance width="1530"/>
  <outline>
    <contour>
      <point x="989" y="1486" type="curve"/>
      <point x="1078" y="1486"/>
      <point x="1122" y="1546"/>
      <point x="1122" y="1616" type="curve" smooth="yes"/>
      <point x="1122" y="1674"/>
      <point x="1081" y="1732"/>
      <point x="1009" y="1732" type="curve" smooth="yes"/>
      <point x="926" y="1732"/>
      <point x="883" y="1666"/>
      <point x="883" y="1600" type="curve" smooth="yes"/>
      <point x="883" y="1536"/>
      <point x="926" y="1486"/>
    </contour>
    <contour>
      <point x="516" y="1486" type="curve" smooth="yes"/>
      <point x="603" y="1486"/>
      <point x="647" y="1546"/>
      <point x="647" y="1616" type="curve" smooth="yes"/>
      <point x="647" y="1674"/>
      <point x="605" y="1732"/>
      <point x="534" y="1732" type="curve"/>
      <point x="448" y="1732"/>
      <point x="407" y="1666"/>
      <point x="407" y="1600" type="curve" smooth="yes"/>
      <point x="407" y="1536"/>
      <point x="448" y="1486"/>
    </contour>
    <contour>
      <point x="749" y="-20" type="curve" smooth="yes"/>
      <point x="1137" y="-14"/>
      <point x="1447" y="252"/>
      <point x="1447" y="660" type="curve" smooth="yes"/>
      <point x="1447" y="1050"/>
      <point x="1212" y="1308"/>
      <point x="785" y="1308" type="curve" smooth="yes"/>
      <point x="394" y="1308"/>
      <point x="83" y="1048"/>
      <point x="83" y="638" type="curve" smooth="yes"/>
      <point x="83" y="248"/>
      <point x="322" y="-26"/>
    </contour>
    <contour>
      <point x="767" y="1220" type="curve" smooth="yes"/>
      <point x="1078" y="1220"/>
      <point x="1254" y="1000"/>
      <point x="1254" y="660" type="curve" smooth="yes"/>
      <point x="1254" y="268"/>
      <point x="1052" y="68"/>
      <point x="760" y="68" type="curve" smooth="yes"/>
      <point x="449" y="68"/>
      <point x="272" y="298"/>
      <point x="272" y="638" type="curve" smooth="yes"/>
      <point x="272" y="1030"/>
      <point x="475" y="1220"/>
    </contour>
  </outline>
</glyph>
<glyph name="pedescender-cy.sc" format="1">
  <advance width="1707"/>
  <outline>
    <contour>
      <point x="1623" y="98" type="curve"/>
      <point x="1374" y="98" type="line"/>
      <point x="1374" y="1190" type="line"/>
      <point x="1560" y="1212" type="line"/>
      <point x="1560" y="1292" type="line"/>
      <point x="115" y="1292" type="line"/>
      <point x="115" y="1210" type="line"/>
      <point x="301" y="1192" type="line"/>
      <point x="301" y="96" type="line"/>
      <point x="126" y="80" type="line"/>
      <point x="126" y="0" type="line"/>
      <point x="676" y="0" type="line"/>
      <point x="676" y="80" type="line"/>
      <point x="469" y="96" type="line"/>
      <point x="469" y="1194" type="line"/>
      <point x="1206" y="1194" type="line"/>
      <point x="1206" y="98" type="line"/>
      <point x="1021" y="80" type="line"/>
      <point x="1021" y="0" type="line"/>
      <point x="1436" y="0" type="line"/>
      <point x="1439" y="-20"/>
      <point x="1455" y="-284"/>
      <point x="1455" y="-320" type="curve"/>
      <point x="1568" y="-320" type="line"/>
      <point x="1570" y="-312"/>
      <point x="1623" y="84"/>
    </contour>
  </outline>
</glyph>
<glyph name="pemiddlehook-cy.sc" format="1">
  <advance width="2256"/>
  <outline>
    <contour>
      <point x="864" y="-144" type="move" name="mark0"/>
    </contour>
    <contour>
      <point x="1374" y="684" type="curve"/>
      <point x="1374" y="1190" type="line"/>
      <point x="1560" y="1212" type="line"/>
      <point x="1560" y="1292" type="line"/>
      <point x="115" y="1292" type="line"/>
      <point x="115" y="1210" type="line"/>
      <point x="301" y="1192" type="line"/>
      <point x="301" y="96" type="line"/>
      <point x="126" y="80" type="line"/>
      <point x="126" y="0" type="line"/>
      <point x="676" y="0" type="line"/>
      <point x="676" y="80" type="line"/>
      <point x="469" y="96" type="line"/>
      <point x="469" y="1194" type="line"/>
      <point x="1206" y="1194" type="line"/>
      <point x="1206" y="98" type="line"/>
      <point x="1021" y="80" type="line"/>
      <point x="1021" y="0" type="line"/>
      <point x="1578" y="0" type="line"/>
      <point x="1578" y="80" type="line"/>
      <point x="1374" y="98" type="line"/>
      <point x="1374" y="592" type="line"/>
      <point x="1450" y="616"/>
      <point x="1539" y="634"/>
      <point x="1660" y="634" type="curve" smooth="yes"/>
      <point x="1906" y="634"/>
      <point x="1984" y="522"/>
      <point x="1984" y="286" type="curve" smooth="yes"/>
      <point x="1984" y="-60"/>
      <point x="1896" y="-240"/>
      <point x="1666" y="-240" type="curve" smooth="yes"/>
      <point x="1635" y="-240"/>
      <point x="1593" y="-240"/>
      <point x="1573" y="-234" type="curve"/>
      <point x="1574" y="-330" type="line"/>
      <point x="1600" y="-340"/>
      <point x="1659" y="-346"/>
      <point x="1688" y="-346" type="curve" smooth="yes"/>
      <point x="2003" y="-346"/>
      <point x="2159" y="-66"/>
      <point x="2159" y="298" type="curve" smooth="yes"/>
      <point x="2159" y="560"/>
      <point x="2091" y="742"/>
      <point x="1702" y="742" type="curve" smooth="yes"/>
      <point x="1575" y="742"/>
      <point x="1434" y="710"/>
    </contour>
  </outline>
</glyph>
<glyph name="qa-cy.sc" format="1">
  <advance width="1541"/>
  <outline>
    <contour>
      <point x="760" y="-144" type="move" name="mark0"/>
    </contour>
    <contour>
      <point x="1556" y="-318" type="curve" smooth="yes"/>
      <point x="1609" y="-318"/>
      <point x="1681" y="-298"/>
      <point x="1728" y="-258" type="curve"/>
      <point x="1707" y="-184" type="line"/>
      <point x="1691" y="-184"/>
      <point x="1681" y="-186"/>
      <point x="1658" y="-186" type="curve"/>
      <point x="1404" y="-186"/>
      <point x="1327" y="10"/>
      <point x="1018" y="30" type="curve"/>
      <point x="1276" y="126"/>
      <point x="1454" y="354"/>
      <point x="1454" y="660" type="curve" smooth="yes"/>
      <point x="1454" y="1050"/>
      <point x="1218" y="1308"/>
      <point x="792" y="1308" type="curve" smooth="yes"/>
      <point x="401" y="1308"/>
      <point x="90" y="1048"/>
      <point x="90" y="638" type="curve" smooth="yes"/>
      <point x="90" y="248"/>
      <point x="329" y="-26"/>
      <point x="754" y="-20" type="curve" smooth="yes"/>
      <point x="795" y="-20"/>
      <point x="855" y="-14"/>
      <point x="892" y="-6" type="curve"/>
      <point x="1164" y="-48"/>
      <point x="1255" y="-318"/>
    </contour>
    <contour>
      <point x="767" y="68" type="curve" smooth="yes"/>
      <point x="456" y="68"/>
      <point x="278" y="298"/>
      <point x="278" y="638" type="curve" smooth="yes"/>
      <point x="278" y="1030"/>
      <point x="482" y="1220"/>
      <point x="774" y="1220" type="curve" smooth="yes"/>
      <point x="1085" y="1220"/>
      <point x="1260" y="1000"/>
      <point x="1260" y="660" type="curve" smooth="yes"/>
      <point x="1260" y="268"/>
      <point x="1059" y="68"/>
    </contour>
  </outline>
</glyph>
<glyph name="reversedze-cy.sc" format="1">
  <advance width="1226"/>
  <outline>
    <contour>
      <point x="1085" y="48" type="curve"/>
      <point x="1141" y="288" type="line"/>
      <point x="1038" y="300" type="line"/>
      <point x="953" y="130" type="line"/>
      <point x="899" y="96"/>
      <point x="787" y="68"/>
      <point x="675" y="68" type="curve" smooth="yes"/>
      <point x="452" y="68"/>
      <point x="319" y="162"/>
      <point x="319" y="346" type="curve" smooth="yes"/>
      <point x="319" y="468"/>
      <point x="393" y="620"/>
      <point x="698" y="620" type="curve"/>
      <point x="853" y="614" type="line"/>
      <point x="853" y="724" type="line"/>
      <point x="724" y="712" type="line"/>
      <point x="546" y="712"/>
      <point x="353" y="772"/>
      <point x="353" y="962" type="curve" smooth="yes"/>
      <point x="353" y="1124"/>
      <point x="471" y="1218"/>
      <point x="670" y="1218" type="curve" smooth="yes"/>
      <point x="804" y="1218"/>
      <point x="903" y="1186"/>
      <point x="937" y="1166" type="curve"/>
      <point x="973" y="966" type="line"/>
      <point x="1082" y="966" type="line"/>
      <point x="1099" y="1252" type="line"/>
      <point x="1011" y="1268"/>
      <point x="818" y="1306"/>
      <point x="689" y="1306" type="curve" smooth="yes"/>
      <point x="365" y="1306"/>
      <point x="170" y="1182"/>
      <point x="170" y="976" type="curve" smooth="yes"/>
      <point x="170" y="780"/>
      <point x="361" y="698"/>
      <point x="533" y="670" type="curve"/>
      <point x="271" y="660"/>
      <point x="122" y="522"/>
      <point x="122" y="340" type="curve" smooth="yes"/>
      <point x="122" y="126"/>
      <point x="295" y="-20"/>
      <point x="667" y="-20" type="curve" smooth="yes"/>
      <point x="858" y="-20"/>
      <point x="977" y="44"/>
    </contour>
  </outline>
</glyph>
<glyph name="schwa-cy.sc" format="1">
  <advance width="1390"/>
  <outline>
    <contour>
      <point x="686" y="1272" type="move" name="top"/>
    </contour>
    <contour>
      <point x="635" y="-20" type="curve" smooth="yes"/>
      <point x="1020" y="-20"/>
      <point x="1311" y="250"/>
      <point x="1311" y="654" type="curve" smooth="yes"/>
      <point x="1311" y="1048"/>
      <point x="1068" y="1306"/>
      <point x="687" y="1306" type="curve" smooth="yes"/>
      <point x="394" y="1306"/>
      <point x="271" y="1244"/>
      <point x="155" y="1238" type="curve"/>
      <point x="141" y="984" type="line"/>
      <point x="250" y="984" type="line"/>
      <point x="288" y="1120" type="line"/>
      <point x="351" y="1164"/>
      <point x="449" y="1216"/>
      <point x="654" y="1216" type="curve" smooth="yes"/>
      <point x="926" y="1216"/>
      <point x="1120" y="1010"/>
      <point x="1137" y="670" type="curve"/>
      <point x="116" y="670" type="line"/>
      <point x="105" y="628"/>
      <point x="105" y="566"/>
      <point x="105" y="492" type="curve"/>
      <point x="114" y="162"/>
      <point x="318" y="-20"/>
    </contour>
    <contour>
      <point x="679" y="82" type="curve" smooth="yes"/>
      <point x="402" y="82"/>
      <point x="282" y="296"/>
      <point x="282" y="480" type="curve" smooth="yes"/>
      <point x="282" y="516"/>
      <point x="285" y="548"/>
      <point x="291" y="576" type="curve"/>
      <point x="1137" y="576" type="line"/>
      <point x="1126" y="226"/>
      <point x="928" y="82"/>
    </contour>
  </outline>
</glyph>
<glyph name="semisoftsign-cy.sc" format="1">
  <advance width="1355"/>
  <outline>
    <contour>
      <point x="466" y="784" type="curve"/>
      <point x="466" y="940" type="line"/>
      <point x="731" y="940" type="line"/>
      <point x="731" y="1026" type="line"/>
      <point x="466" y="1026" type="line"/>
      <point x="466" y="1192" type="line"/>
      <point x="667" y="1214" type="line"/>
      <point x="667" y="1292" type="line"/>
      <point x="121" y="1292" type="line"/>
      <point x="121" y="1214" type="line"/>
      <point x="299" y="1192" type="line"/>
      <point x="299" y="1026" type="line"/>
      <point x="81" y="1026" type="line"/>
      <point x="81" y="940" type="line"/>
      <point x="299" y="940" type="line"/>
      <point x="299" y="96" type="line"/>
      <point x="117" y="80" type="line"/>
      <point x="117" y="0" type="line"/>
      <point x="392" y="0" type="line" smooth="yes"/>
      <point x="478" y="0"/>
      <point x="668" y="-14"/>
      <point x="718" y="-14" type="curve" smooth="yes"/>
      <point x="1049" y="-14"/>
      <point x="1278" y="132"/>
      <point x="1278" y="406" type="curve" smooth="yes"/>
      <point x="1278" y="644"/>
      <point x="1088" y="786"/>
      <point x="749" y="786" type="curve"/>
      <point x="656" y="786"/>
      <point x="561" y="784"/>
    </contour>
    <contour>
      <point x="466" y="90" type="curve"/>
      <point x="466" y="688" type="line"/>
      <point x="547" y="688"/>
      <point x="624" y="688"/>
      <point x="702" y="688" type="curve" smooth="yes"/>
      <point x="946" y="688"/>
      <point x="1097" y="594"/>
      <point x="1097" y="396" type="curve" smooth="yes"/>
      <point x="1097" y="188"/>
      <point x="947" y="76"/>
      <point x="703" y="76" type="curve" smooth="yes"/>
      <point x="581" y="76"/>
      <point x="530" y="82"/>
    </contour>
  </outline>
</glyph>
<glyph name="shcha-cy.sc" format="1">
  <advance width="2291"/>
  <outline>
    <contour>
      <point x="2228" y="98" type="curve"/>
      <point x="1972" y="98" type="line"/>
      <point x="1972" y="1192" type="line"/>
      <point x="2152" y="1210" type="line"/>
      <point x="2152" y="1292" type="line"/>
      <point x="1643" y="1292" type="line"/>
      <point x="1643" y="1210" type="line"/>
      <point x="1804" y="1192" type="line"/>
      <point x="1804" y="96" type="line"/>
      <point x="1222" y="96" type="line"/>
      <point x="1222" y="1192" type="line"/>
      <point x="1392" y="1210" type="line"/>
      <point x="1392" y="1292" type="line"/>
      <point x="897" y="1292" type="line"/>
      <point x="897" y="1210" type="line"/>
      <point x="1061" y="1192" type="line"/>
      <point x="1061" y="96" type="line"/>
      <point x="466" y="96" type="line"/>
      <point x="466" y="1192" type="line"/>
      <point x="667" y="1210" type="line"/>
      <point x="667" y="1292" type="line"/>
      <point x="119" y="1292" type="line"/>
      <point x="119" y="1210" type="line"/>
      <point x="301" y="1192" type="line"/>
      <point x="301" y="98" type="line"/>
      <point x="92" y="80" type="line"/>
      <point x="92" y="0" type="line"/>
      <point x="2040" y="0" type="line"/>
      <point x="2043" y="-16"/>
      <point x="2057" y="-288"/>
      <point x="2059" y="-320" type="curve"/>
      <point x="2173" y="-320" type="line"/>
      <point x="2193" y="-186"/>
      <point x="2212" y="-22"/>
    </contour>
  </outline>
</glyph>
<glyph name="te-cy.loclBGR.sc" format="1">
  <advance width="1468"/>
  <outline>
    <contour>
      <point x="647" y="98" type="line"/>
      <point x="372" y="80" type="line"/>
      <point x="372" y="0" type="line"/>
      <point x="1129" y="0" type="line"/>
      <point x="1129" y="80" type="line"/>
      <point x="827" y="98" type="line"/>
      <point x="827" y="1206" type="line"/>
      <point x="1237" y="1196" type="line"/>
      <point x="1294" y="838" type="line"/>
      <point x="1406" y="838" type="line"/>
      <point x="1382" y="1292" type="line"/>
      <point x="98" y="1292" type="line"/>
      <point x="62" y="838" type="line"/>
      <point x="178" y="838" type="line"/>
      <point x="244" y="1196" type="line"/>
      <point x="647" y="1206" type="line"/>
    </contour>
  </outline>
</glyph>
<glyph name="te-cy.sc" format="1">
  <advance width="1441"/>
  <outline>
    <contour>
      <point x="721" y="1272" type="move" name="top"/>
    </contour>
    <contour>
      <point x="739" y="-144" type="move" name="mark0"/>
    </contour>
    <contour>
      <point x="721" y="648" type="move" name="center"/>
    </contour>
    <contour>
      <point x="721" y="0" type="move" name="bottom"/>
    </contour>
    <contour>
      <point x="627" y="98" type="line"/>
      <point x="352" y="80" type="line"/>
      <point x="352" y="0" type="line"/>
      <point x="1108" y="0" type="line"/>
      <point x="1108" y="80" type="line"/>
      <point x="807" y="98" type="line"/>
      <point x="807" y="1206" type="line"/>
      <point x="1217" y="1196" type="line"/>
      <point x="1274" y="838" type="line"/>
      <point x="1386" y="838" type="line"/>
      <point x="1362" y="1292" type="line"/>
      <point x="77" y="1292" type="line"/>
      <point x="42" y="838" type="line"/>
      <point x="158" y="838" type="line"/>
      <point x="224" y="1196" type="line"/>
      <point x="627" y="1206" type="line"/>
    </contour>
  </outline>
</glyph>
<glyph name="tetse-cy.sc" format="1">
  <advance width="2001"/>
  <outline>
    <contour>
      <point x="1957" y="98" type="curve"/>
      <point x="1681" y="98" type="line"/>
      <point x="1681" y="1192" type="line"/>
      <point x="1855" y="1210" type="line"/>
      <point x="1855" y="1292" type="line"/>
      <point x="1344" y="1292" type="line"/>
      <point x="1344" y="1210" type="line"/>
      <point x="1510" y="1192" type="line"/>
      <point x="1510" y="96" type="line"/>
      <point x="699" y="96" type="line"/>
      <point x="699" y="1202" type="line"/>
      <point x="980" y="1192" type="line"/>
      <point x="1036" y="862" type="line"/>
      <point x="1150" y="862" type="line"/>
      <point x="1129" y="1292" type="line"/>
      <point x="100" y="1292" type="line"/>
      <point x="76" y="862" type="line"/>
      <point x="193" y="862" type="line"/>
      <point x="249" y="1192" type="line"/>
      <point x="531" y="1202" type="line"/>
      <point x="531" y="96" type="line"/>
      <point x="363" y="80" type="line"/>
      <point x="363" y="0" type="line"/>
      <point x="1769" y="0" type="line"/>
      <point x="1770" y="-16"/>
      <point x="1786" y="-274"/>
      <point x="1786" y="-314" type="curve"/>
      <point x="1899" y="-314" type="line"/>
      <point x="1917" y="-192"/>
      <point x="1936" y="-34"/>
    </contour>
  </outline>
</glyph>
<glyph name="tse-cy.sc" format="1">
  <advance width="1670"/>
  <outline>
    <contour>
      <point x="1607" y="98" type="curve"/>
      <point x="1358" y="98" type="line"/>
      <point x="1358" y="1192" type="line"/>
      <point x="1535" y="1210" type="line"/>
      <point x="1535" y="1292" type="line"/>
      <point x="1024" y="1292" type="line"/>
      <point x="1024" y="1210" type="line"/>
      <point x="1188" y="1192" type="line"/>
      <point x="1188" y="96" type="line"/>
      <point x="466" y="96" type="line"/>
      <point x="466" y="1192" type="line"/>
      <point x="682" y="1210" type="line"/>
      <point x="682" y="1292" type="line"/>
      <point x="117" y="1292" type="line"/>
      <point x="117" y="1210" type="line"/>
      <point x="301" y="1192" type="line"/>
      <point x="301" y="100" type="line"/>
      <point x="94" y="80" type="line"/>
      <point x="94" y="0" type="line"/>
      <point x="1419" y="0" type="line"/>
      <point x="1422" y="-20"/>
      <point x="1439" y="-288"/>
      <point x="1439" y="-320" type="curve"/>
      <point x="1552" y="-320" type="line"/>
      <point x="1554" y="-314"/>
      <point x="1607" y="86"/>
    </contour>
  </outline>
</glyph>
<glyph name="tshe-cy.sc" format="1">
  <advance width="1798"/>
  <outline>
    <contour>
      <point x="714" y="-144" type="move" name="mark0"/>
    </contour>
    <contour>
      <point x="841" y="660" type="curve"/>
      <point x="841" y="1206" type="line"/>
      <point x="1301" y="1192" type="line"/>
      <point x="1340" y="884" type="line"/>
      <point x="1455" y="884" type="line"/>
      <point x="1457" y="1292" type="line"/>
      <point x="115" y="1292" type="line"/>
      <point x="88" y="884" type="line"/>
      <point x="204" y="884" type="line"/>
      <point x="263" y="1192" type="line"/>
      <point x="668" y="1206" type="line"/>
      <point x="668" y="98" type="line"/>
      <point x="386" y="80" type="line"/>
      <point x="386" y="0" type="line"/>
      <point x="1056" y="0" type="line"/>
      <point x="1056" y="80" type="line"/>
      <point x="841" y="98" type="line"/>
      <point x="841" y="570" type="line"/>
      <point x="903" y="602"/>
      <point x="1019" y="634"/>
      <point x="1184" y="634" type="curve" smooth="yes"/>
      <point x="1432" y="634"/>
      <point x="1466" y="492"/>
      <point x="1466" y="304" type="curve" smooth="yes"/>
      <point x="1466" y="96" type="line"/>
      <point x="1303" y="80" type="line"/>
      <point x="1303" y="0" type="line"/>
      <point x="1802" y="0" type="line"/>
      <point x="1802" y="80" type="line"/>
      <point x="1634" y="96" type="line"/>
      <point x="1634" y="358" type="line" smooth="yes"/>
      <point x="1634" y="616"/>
      <point x="1542" y="742"/>
      <point x="1212" y="742" type="curve" smooth="yes"/>
      <point x="1106" y="742"/>
      <point x="926" y="706"/>
    </contour>
  </outline>
</glyph>
<glyph name="u-cy.sc" format="1">
  <advance width="1399"/>
  <outline>
    <contour>
      <point x="699" y="1272" type="move" name="top"/>
    </contour>
    <contour>
      <point x="806" y="266" type="curve"/>
      <point x="1269" y="1192" type="line"/>
      <point x="1377" y="1210" type="line"/>
      <point x="1377" y="1292" type="line"/>
      <point x="935" y="1292" type="line"/>
      <point x="935" y="1210" type="line"/>
      <point x="1129" y="1192" type="line"/>
      <point x="838" y="574" type="line"/>
      <point x="764" y="410" type="line"/>
      <point x="696" y="572" type="line"/>
      <point x="323" y="1192" type="line"/>
      <point x="541" y="1210" type="line"/>
      <point x="541" y="1292" type="line"/>
      <point x="22" y="1292" type="line"/>
      <point x="22" y="1210" type="line"/>
      <point x="136" y="1192" type="line"/>
      <point x="686" y="280" type="line"/>
      <point x="634" y="166"/>
      <point x="580" y="124"/>
      <point x="453" y="124" type="curve" smooth="yes"/>
      <point x="435" y="124"/>
      <point x="310" y="126"/>
      <point x="306" y="128" type="curve"/>
      <point x="306" y="10" type="line"/>
      <point x="347" y="-6"/>
      <point x="406" y="-20"/>
      <point x="477" y="-20" type="curve" smooth="yes"/>
      <point x="692" y="-20"/>
      <point x="752" y="162"/>
    </contour>
  </outline>
</glyph>
<glyph name="udieresis-cy.sc" format="1">
  <advance width="1399"/>
  <outline>
    <contour>
      <point x="923" y="1486" type="curve"/>
      <point x="1012" y="1486"/>
      <point x="1056" y="1546"/>
      <point x="1056" y="1616" type="curve" smooth="yes"/>
      <point x="1056" y="1674"/>
      <point x="1015" y="1732"/>
      <point x="943" y="1732" type="curve" smooth="yes"/>
      <point x="860" y="1732"/>
      <point x="817" y="1666"/>
      <point x="817" y="1600" type="curve" smooth="yes"/>
      <point x="817" y="1536"/>
      <point x="860" y="1486"/>
    </contour>
    <contour>
      <point x="450" y="1486" type="curve" smooth="yes"/>
      <point x="537" y="1486"/>
      <point x="581" y="1546"/>
      <point x="581" y="1616" type="curve" smooth="yes"/>
      <point x="581" y="1674"/>
      <point x="539" y="1732"/>
      <point x="467" y="1732" type="curve"/>
      <point x="382" y="1732"/>
      <point x="341" y="1666"/>
      <point x="341" y="1600" type="curve" smooth="yes"/>
      <point x="341" y="1536"/>
      <point x="382" y="1486"/>
    </contour>
    <contour>
      <point x="806" y="266" type="curve"/>
      <point x="1269" y="1192" type="line"/>
      <point x="1377" y="1210" type="line"/>
      <point x="1377" y="1292" type="line"/>
      <point x="935" y="1292" type="line"/>
      <point x="935" y="1210" type="line"/>
      <point x="1129" y="1192" type="line"/>
      <point x="838" y="574" type="line"/>
      <point x="764" y="410" type="line"/>
      <point x="696" y="572" type="line"/>
      <point x="323" y="1192" type="line"/>
      <point x="541" y="1210" type="line"/>
      <point x="541" y="1292" type="line"/>
      <point x="22" y="1292" type="line"/>
      <point x="22" y="1210" type="line"/>
      <point x="136" y="1192" type="line"/>
      <point x="686" y="280" type="line"/>
      <point x="634" y="166"/>
      <point x="580" y="124"/>
      <point x="453" y="124" type="curve" smooth="yes"/>
      <point x="435" y="124"/>
      <point x="310" y="126"/>
      <point x="306" y="128" type="curve"/>
      <point x="306" y="10" type="line"/>
      <point x="347" y="-6"/>
      <point x="406" y="-20"/>
      <point x="477" y="-20" type="curve" smooth="yes"/>
      <point x="692" y="-20"/>
      <point x="752" y="162"/>
    </contour>
  </outline>
</glyph>
<glyph name="ushort-cy.sc" format="1">
  <advance width="1399"/>
  <outline>
    <contour>
      <point x="428" y="1856" type="curve" smooth="yes"/>
      <point x="302" y="1856" type="line"/>
      <point x="302" y="1844"/>
      <point x="300" y="1832"/>
      <point x="300" y="1822" type="curve" smooth="yes"/>
      <point x="300" y="1616"/>
      <point x="441" y="1464"/>
      <point x="701" y="1464" type="curve" smooth="yes"/>
      <point x="966" y="1464"/>
      <point x="1097" y="1614"/>
      <point x="1097" y="1822" type="curve" smooth="yes"/>
      <point x="1097" y="1832"/>
      <point x="1095" y="1844"/>
      <point x="1095" y="1856" type="curve"/>
      <point x="970" y="1856" type="line" smooth="yes"/>
      <point x="942" y="1856"/>
      <point x="937" y="1822"/>
      <point x="937" y="1788" type="curve" smooth="yes"/>
      <point x="937" y="1682"/>
      <point x="885" y="1560"/>
      <point x="703" y="1560" type="curve" smooth="yes"/>
      <point x="518" y="1560"/>
      <point x="460" y="1682"/>
      <point x="460" y="1788" type="curve" smooth="yes"/>
      <point x="460" y="1822"/>
      <point x="456" y="1856"/>
    </contour>
    <contour>
      <point x="806" y="266" type="curve"/>
      <point x="1269" y="1192" type="line"/>
      <point x="1377" y="1210" type="line"/>
      <point x="1377" y="1292" type="line"/>
      <point x="935" y="1292" type="line"/>
      <point x="935" y="1210" type="line"/>
      <point x="1129" y="1192" type="line"/>
      <point x="838" y="574" type="line"/>
      <point x="764" y="410" type="line"/>
      <point x="696" y="572" type="line"/>
      <point x="323" y="1192" type="line"/>
      <point x="541" y="1210" type="line"/>
      <point x="541" y="1292" type="line"/>
      <point x="22" y="1292" type="line"/>
      <point x="22" y="1210" type="line"/>
      <point x="136" y="1192" type="line"/>
      <point x="686" y="280" type="line"/>
      <point x="634" y="166"/>
      <point x="580" y="124"/>
      <point x="453" y="124" type="curve" smooth="yes"/>
      <point x="435" y="124"/>
      <point x="310" y="126"/>
      <point x="306" y="128" type="curve"/>
      <point x="306" y="10" type="line"/>
      <point x="347" y="-6"/>
      <point x="406" y="-20"/>
      <point x="477" y="-20" type="curve" smooth="yes"/>
      <point x="692" y="-20"/>
      <point x="752" y="162"/>
    </contour>
  </outline>
</glyph>
<glyph name="ustrait-cy.sc" format="1">
  <advance width="1433"/>
  <outline>
    <contour>
      <point x="82" y="1292" type="move" name="topleft"/>
    </contour>
    <contour>
      <point x="735" y="1292" type="move" name="top"/>
    </contour>
    <contour>
      <point x="687" y="-144" type="move" name="mark0"/>
    </contour>
    <contour>
      <point x="717" y="0" type="move" name="bottom"/>
    </contour>
    <contour>
      <point x="642" y="98" type="line"/>
      <point x="408" y="80" type="line"/>
      <point x="408" y="0" type="line"/>
      <point x="1056" y="0" type="line"/>
      <point x="1056" y="80" type="line"/>
      <point x="816" y="98" type="line"/>
      <point x="816" y="502" type="line"/>
      <point x="1272" y="1192" type="line"/>
      <point x="1411" y="1210" type="line"/>
      <point x="1411" y="1292" type="line"/>
      <point x="955" y="1292" type="line"/>
      <point x="955" y="1210" type="line"/>
      <point x="1134" y="1192" type="line"/>
      <point x="825" y="712" type="line"/>
      <point x="744" y="578" type="line"/>
      <point x="667" y="712" type="line"/>
      <point x="345" y="1192" type="line"/>
      <point x="524" y="1210" type="line"/>
      <point x="524" y="1292" type="line"/>
      <point x="22" y="1292" type="line"/>
      <point x="22" y="1210" type="line"/>
      <point x="153" y="1190" type="line"/>
      <point x="642" y="500" type="line"/>
    </contour>
  </outline>
</glyph>
<glyph name="ve-cy.loclBGR.sc" format="1">
  <advance width="1387"/>
  <outline>
    <contour>
      <point x="270" y="98" type="line"/>
      <point x="88" y="80" type="line"/>
      <point x="88" y="0" type="line"/>
      <point x="347" y="0" type="line" smooth="yes"/>
      <point x="509" y="0"/>
      <point x="580" y="-10"/>
      <point x="682" y="-10" type="curve" smooth="yes"/>
      <point x="1168" y="-10"/>
      <point x="1311" y="180"/>
      <point x="1311" y="388" type="curve" smooth="yes"/>
      <point x="1311" y="574"/>
      <point x="1151" y="696"/>
      <point x="892" y="690" type="curve"/>
      <point x="1102" y="722"/>
      <point x="1198" y="856"/>
      <point x="1198" y="1014" type="curve" smooth="yes"/>
      <point x="1198" y="1196"/>
      <point x="1060" y="1306"/>
      <point x="686" y="1306" type="curve" smooth="yes"/>
      <point x="580" y="1306"/>
      <point x="482" y="1292"/>
      <point x="354" y="1292" type="curve" smooth="yes"/>
      <point x="93" y="1292" type="line"/>
      <point x="93" y="1210" type="line"/>
      <point x="270" y="1192" type="line"/>
    </contour>
    <contour>
      <point x="440" y="720" type="curve"/>
      <point x="440" y="1210" type="line"/>
      <point x="483" y="1212"/>
      <point x="557" y="1222"/>
      <point x="661" y="1222" type="curve" smooth="yes"/>
      <point x="943" y="1222"/>
      <point x="1032" y="1140"/>
      <point x="1032" y="982" type="curve" smooth="yes"/>
      <point x="1032" y="814"/>
      <point x="916" y="720"/>
      <point x="702" y="720" type="curve" smooth="yes"/>
      <point x="653" y="720"/>
      <point x="506" y="718"/>
    </contour>
    <contour>
      <point x="440" y="92" type="curve"/>
      <point x="440" y="620" type="line"/>
      <point x="504" y="624"/>
      <point x="676" y="622"/>
      <point x="745" y="622" type="curve" smooth="yes"/>
      <point x="1017" y="622"/>
      <point x="1131" y="544"/>
      <point x="1131" y="362" type="curve" smooth="yes"/>
      <point x="1131" y="188"/>
      <point x="1009" y="78"/>
      <point x="681" y="78" type="curve" smooth="yes"/>
      <point x="600" y="78"/>
      <point x="495" y="80"/>
    </contour>
  </outline>
</glyph>
<glyph name="we-cy.sc" format="1">
  <advance width="2140"/>
  <outline>
    <contour>
      <point x="1072" y="1272" type="move" name="top"/>
    </contour>
    <contour>
      <point x="1055" y="-144" type="move" name="mark0"/>
    </contour>
    <contour>
      <point x="1073" y="0" type="move" name="bottom"/>
    </contour>
    <contour>
      <point x="-16" y="1210" type="line"/>
      <point x="133" y="1190" type="line"/>
      <point x="588" y="-8" type="line"/>
      <point x="740" y="-8" type="line"/>
      <point x="1078" y="880" type="line"/>
      <point x="1421" y="-8" type="line"/>
      <point x="1582" y="-8" type="line"/>
      <point x="2014" y="1192" type="line"/>
      <point x="2155" y="1210" type="line"/>
      <point x="2155" y="1292" type="line"/>
      <point x="1657" y="1292" type="line"/>
      <point x="1657" y="1210" type="line"/>
      <point x="1880" y="1192" type="line"/>
      <point x="1597" y="374" type="line"/>
      <point x="1526" y="96" type="line"/>
      <point x="1444" y="374" type="line"/>
      <point x="1144" y="1192" type="line"/>
      <point x="1354" y="1210" type="line"/>
      <point x="1354" y="1292" type="line"/>
      <point x="808" y="1292" type="line"/>
      <point x="808" y="1210" type="line"/>
      <point x="963" y="1192" type="line"/>
      <point x="1020" y="1044" type="line"/>
      <point x="767" y="374" type="line"/>
      <point x="685" y="116" type="line"/>
      <point x="614" y="374" type="line"/>
      <point x="307" y="1192" type="line"/>
      <point x="514" y="1210" type="line"/>
      <point x="514" y="1292" type="line"/>
      <point x="-16" y="1292" type="line"/>
    </contour>
  </outline>
</glyph>
<glyph name="yeru-cy.sc" format="1">
  <advance width="2191"/>
  <outline>
    <contour>
      <point x="1096" y="1272" type="move" name="top"/>
    </contour>
    <contour>
      <point x="466" y="784" type="curve"/>
      <point x="466" y="1192" type="line"/>
      <point x="665" y="1214" type="line"/>
      <point x="665" y="1292" type="line"/>
      <point x="121" y="1292" type="line"/>
      <point x="121" y="1214" type="line"/>
      <point x="299" y="1192" type="line"/>
      <point x="299" y="96" type="line"/>
      <point x="115" y="80" type="line"/>
      <point x="115" y="0" type="line"/>
      <point x="392" y="0" type="line" smooth="yes"/>
      <point x="476" y="0"/>
      <point x="668" y="-14"/>
      <point x="718" y="-14" type="curve" smooth="yes"/>
      <point x="1047" y="-14"/>
      <point x="1276" y="130"/>
      <point x="1276" y="406" type="curve" smooth="yes"/>
      <point x="1276" y="644"/>
      <point x="1088" y="786"/>
      <point x="746" y="786" type="curve" smooth="yes"/>
      <point x="651" y="786"/>
      <point x="561" y="784"/>
    </contour>
    <contour>
      <point x="466" y="90" type="curve"/>
      <point x="466" y="688" type="line"/>
      <point x="545" y="688"/>
      <point x="622" y="688"/>
      <point x="700" y="688" type="curve" smooth="yes"/>
      <point x="946" y="688"/>
      <point x="1097" y="594"/>
      <point x="1097" y="396" type="curve" smooth="yes"/>
      <point x="1097" y="188"/>
      <point x="947" y="76"/>
      <point x="701" y="76" type="curve" smooth="yes"/>
      <point x="581" y="76"/>
      <point x="527" y="82"/>
    </contour>
    <contour>
      <point x="1475" y="1292" type="line"/>
      <point x="1475" y="1210" type="line"/>
      <point x="1680" y="1192" type="line"/>
      <point x="1680" y="98" type="line"/>
      <point x="1475" y="80" type="line"/>
      <point x="1475" y="0" type="line"/>
      <point x="2059" y="0" type="line"/>
      <point x="2059" y="80" type="line"/>
      <point x="1852" y="96" type="line"/>
      <point x="1852" y="1192" type="line"/>
      <point x="2059" y="1210" type="line"/>
      <point x="2059" y="1292" type="line"/>
    </contour>
  </outline>
</glyph>
<glyph name="yi-cy.sc" format="1">
  <advance width="840"/>
  <outline>
    <contour>
      <point x="645" y="1486" type="curve"/>
      <point x="734" y="1486"/>
      <point x="778" y="1546"/>
      <point x="778" y="1616" type="curve" smooth="yes"/>
      <point x="778" y="1674"/>
      <point x="737" y="1732"/>
      <point x="665" y="1732" type="curve" smooth="yes"/>
      <point x="582" y="1732"/>
      <point x="539" y="1666"/>
      <point x="539" y="1600" type="curve" smooth="yes"/>
      <point x="539" y="1536"/>
      <point x="582" y="1486"/>
    </contour>
    <contour>
      <point x="172" y="1486" type="curve" smooth="yes"/>
      <point x="259" y="1486"/>
      <point x="303" y="1546"/>
      <point x="303" y="1616" type="curve" smooth="yes"/>
      <point x="303" y="1674"/>
      <point x="262" y="1732"/>
      <point x="190" y="1732" type="curve"/>
      <point x="105" y="1732"/>
      <point x="64" y="1666"/>
      <point x="64" y="1600" type="curve" smooth="yes"/>
      <point x="64" y="1536"/>
      <point x="105" y="1486"/>
    </contour>
    <contour>
      <point x="332" y="98" type="line"/>
      <point x="128" y="80" type="line"/>
      <point x="128" y="0" type="line"/>
      <point x="712" y="0" type="line"/>
      <point x="712" y="80" type="line"/>
      <point x="506" y="96" type="line"/>
      <point x="506" y="1192" type="line"/>
      <point x="712" y="1210" type="line"/>
      <point x="712" y="1292" type="line"/>
      <point x="128" y="1292" type="line"/>
      <point x="128" y="1210" type="line"/>
      <point x="332" y="1192" type="line"/>
    </contour>
  </outline>
</glyph>
<glyph name="yusbig-cy.sc" format="1">
  <advance width="2190"/>
  <outline>
    <contour>
      <point x="854" y="600" type="curve" smooth="yes"/>
      <point x="1014" y="600" type="line"/>
      <point x="1014" y="98" type="line"/>
      <point x="836" y="80" type="line"/>
      <point x="836" y="0" type="line"/>
      <point x="1360" y="0" type="line"/>
      <point x="1360" y="80" type="line"/>
      <point x="1176" y="98" type="line"/>
      <point x="1176" y="600" type="line"/>
      <point x="1333" y="600" type="line" smooth="yes"/>
      <point x="1504" y="600"/>
      <point x="1804" y="0"/>
      <point x="1948" y="0" type="curve" smooth="yes"/>
      <point x="2163" y="0" type="line"/>
      <point x="2163" y="80" type="line"/>
      <point x="2083" y="98" type="line" smooth="yes"/>
      <point x="1965" y="124"/>
      <point x="1653" y="682"/>
      <point x="1421" y="682" type="curve" smooth="yes"/>
      <point x="1228" y="682" type="line"/>
      <point x="1759" y="1214" type="line"/>
      <point x="1748" y="1292" type="line"/>
      <point x="442" y="1292" type="line"/>
      <point x="431" y="1214" type="line"/>
      <point x="960" y="682" type="line"/>
      <point x="767" y="682" type="line" smooth="yes"/>
      <point x="556" y="682"/>
      <point x="222" y="124"/>
      <point x="107" y="98" type="curve" smooth="yes"/>
      <point x="26" y="80" type="line"/>
      <point x="26" y="0" type="line"/>
      <point x="240" y="0" type="line" smooth="yes"/>
      <point x="385" y="0"/>
      <point x="686" y="600"/>
    </contour>
    <contour>
      <point x="615" y="1184" type="line"/>
      <point x="1575" y="1184" type="line"/>
      <point x="1096" y="680" type="line"/>
    </contour>
  </outline>
</glyph>
<glyph name="zedescender-cy.loclBSH.sc" format="1">
  <advance width="1274"/>
  <outline>
    <contour>
      <point x="334" y="130" type="curve"/>
      <point x="278" y="350" type="line"/>
      <point x="201" y="350" type="line"/>
      <point x="166" y="56" type="line"/>
      <point x="235" y="34"/>
      <point x="388" y="-6"/>
      <point x="576" y="-10" type="curve"/>
      <point x="613" y="-50"/>
      <point x="644" y="-118"/>
      <point x="644" y="-202" type="curve"/>
      <point x="545" y="-348" type="line"/>
      <point x="544" y="-406"/>
      <point x="592" y="-442"/>
      <point x="655" y="-442" type="curve" smooth="yes"/>
      <point x="740" y="-442"/>
      <point x="795" y="-362"/>
      <point x="795" y="-260" type="curve" smooth="yes"/>
      <point x="795" y="-180"/>
      <point x="752" y="-78"/>
      <point x="692" y="-6" type="curve"/>
      <point x="1013" y="16"/>
      <point x="1152" y="162"/>
      <point x="1152" y="378" type="curve" smooth="yes"/>
      <point x="1152" y="546"/>
      <point x="1017" y="676"/>
      <point x="746" y="682" type="curve"/>
      <point x="926" y="712"/>
      <point x="1104" y="818"/>
      <point x="1104" y="1014" type="curve" smooth="yes"/>
      <point x="1104" y="1214"/>
      <point x="909" y="1306"/>
      <point x="576" y="1306" type="curve" smooth="yes"/>
      <point x="417" y="1306"/>
      <point x="263" y="1256"/>
      <point x="175" y="1250" type="curve"/>
      <point x="191" y="988" type="line"/>
      <point x="300" y="988" type="line"/>
      <point x="337" y="1146" type="line"/>
      <point x="371" y="1188"/>
      <point x="475" y="1216"/>
      <point x="601" y="1216" type="curve" smooth="yes"/>
      <point x="791" y="1216"/>
      <point x="921" y="1154"/>
      <point x="921" y="992" type="curve" smooth="yes"/>
      <point x="921" y="802"/>
      <point x="728" y="712"/>
      <point x="550" y="712" type="curve" smooth="yes"/>
      <point x="426" y="712" type="line"/>
      <point x="426" y="620" type="line"/>
      <point x="576" y="620" type="line" smooth="yes"/>
      <point x="881" y="620"/>
      <point x="955" y="486"/>
      <point x="955" y="364" type="curve" smooth="yes"/>
      <point x="955" y="174"/>
      <point x="849" y="84"/>
      <point x="649" y="84" type="curve" smooth="yes"/>
      <point x="503" y="84"/>
      <point x="395" y="104"/>
    </contour>
  </outline>
</glyph>
<glyph name="zhedescender-cy.sc" format="1">
  <advance width="2186"/>
  <outline>
    <contour>
      <point x="1492" y="670" type="curve"/>
      <point x="1973" y="1192" type="line"/>
      <point x="2135" y="1210" type="line"/>
      <point x="2135" y="1292" type="line"/>
      <point x="1648" y="1292" type="line"/>
      <point x="1648" y="1210" type="line"/>
      <point x="1822" y="1190" type="line"/>
      <point x="1375" y="680" type="line"/>
      <point x="1175" y="680" type="line"/>
      <point x="1175" y="1192" type="line"/>
      <point x="1358" y="1210" type="line"/>
      <point x="1358" y="1292" type="line"/>
      <point x="835" y="1292" type="line"/>
      <point x="835" y="1210" type="line"/>
      <point x="1013" y="1192" type="line"/>
      <point x="1013" y="680" type="line"/>
      <point x="814" y="680" type="line"/>
      <point x="362" y="1192" type="line"/>
      <point x="538" y="1210" type="line"/>
      <point x="538" y="1292" type="line"/>
      <point x="51" y="1292" type="line"/>
      <point x="51" y="1210" type="line"/>
      <point x="213" y="1192" type="line"/>
      <point x="694" y="672" type="line"/>
      <point x="500" y="600"/>
      <point x="222" y="124"/>
      <point x="107" y="98" type="curve" smooth="yes"/>
      <point x="26" y="80" type="line"/>
      <point x="26" y="0" type="line"/>
      <point x="239" y="0" type="line" smooth="yes"/>
      <point x="385" y="0"/>
      <point x="686" y="600"/>
      <point x="854" y="600" type="curve" smooth="yes"/>
      <point x="1013" y="600" type="line"/>
      <point x="1013" y="98" type="line"/>
      <point x="835" y="80" type="line"/>
      <point x="835" y="0" type="line"/>
      <point x="1360" y="0" type="line"/>
      <point x="1360" y="80" type="line"/>
      <point x="1175" y="98" type="line"/>
      <point x="1175" y="600" type="line"/>
      <point x="1333" y="600" type="line" smooth="yes"/>
      <point x="1503" y="600"/>
      <point x="1804" y="0"/>
      <point x="1947" y="0" type="curve" smooth="yes"/>
      <point x="2021" y="0" type="line"/>
      <point x="2028" y="-24"/>
      <point x="2038" y="-284"/>
      <point x="2038" y="-320" type="curve"/>
      <point x="2151" y="-320" type="line"/>
      <point x="2156" y="-308"/>
      <point x="2207" y="82"/>
      <point x="2207" y="98" type="curve"/>
      <point x="2077" y="98" type="line"/>
      <point x="1960" y="132"/>
      <point x="1686" y="598"/>
    </contour>
  </outline>
</glyph>
